<svg id="svg" version="1.1" xmlns="http://www.w3.org/2000/svg" xmlns:xlink="http://www.w3.org/1999/xlink" width="400" height="454.8302872062663" viewBox="0, 0, 400,454.8302872062663"><g id="svgg"><path id="path0" d="M315.900 0.694 L 314.000 0.844 314.000 7.532 C 314.000 14.121,313.440 20.783,312.851 21.191 C 312.686 21.306,312.324 22.435,312.047 23.700 C 311.769 24.965,311.376 26.000,311.171 26.000 C 310.967 26.000,310.800 26.264,310.800 26.586 C 310.800 27.399,309.524 30.000,309.126 30.000 C 308.947 30.000,308.800 30.227,308.800 30.503 C 308.800 31.164,303.503 36.279,302.207 36.869 C 301.653 37.122,301.200 37.465,301.200 37.632 C 301.200 37.800,300.658 38.055,299.996 38.201 C 299.334 38.346,298.546 38.711,298.245 39.012 C 297.945 39.312,296.282 39.933,294.550 40.391 C 292.817 40.849,290.770 41.393,290.000 41.599 C 289.230 41.806,286.749 42.097,284.487 42.247 C 282.224 42.397,280.279 42.673,280.163 42.860 C 280.047 43.047,275.508 43.202,270.076 43.204 C 257.926 43.208,238.717 43.897,238.420 44.338 C 238.299 44.517,236.407 44.881,234.215 45.145 C 232.024 45.410,230.134 45.770,230.015 45.946 C 229.897 46.121,228.675 46.500,227.300 46.787 C 225.925 47.074,224.800 47.475,224.800 47.678 C 224.800 47.881,224.647 47.952,224.459 47.837 C 224.272 47.721,223.424 47.980,222.575 48.413 C 221.726 48.846,220.799 49.200,220.515 49.200 C 220.232 49.200,220.000 49.368,220.000 49.573 C 220.000 49.778,219.595 50.066,219.100 50.213 C 217.988 50.543,215.114 52.420,214.680 53.099 C 214.504 53.374,214.149 53.600,213.891 53.600 C 213.633 53.600,212.118 54.995,210.524 56.700 C 206.839 60.642,206.719 60.788,206.001 62.212 C 205.671 62.865,205.298 63.490,205.172 63.600 C 204.671 64.035,202.455 69.082,202.186 70.400 C 202.028 71.170,201.739 71.903,201.542 72.028 C 201.346 72.154,200.984 73.414,200.737 74.828 C 200.491 76.243,200.162 77.490,200.006 77.600 C 199.502 77.956,198.800 85.885,198.800 91.214 L 198.800 96.400 204.400 96.400 L 210.000 96.400 210.000 92.000 C 210.000 89.580,210.141 87.600,210.313 87.600 C 210.485 87.600,210.833 85.863,211.085 83.741 C 211.337 81.619,211.702 79.774,211.895 79.641 C 212.089 79.508,212.490 78.365,212.787 77.100 C 213.085 75.835,213.465 74.800,213.633 74.800 C 213.801 74.800,214.157 74.135,214.426 73.323 C 214.694 72.510,215.248 71.486,215.657 71.047 C 216.065 70.608,216.400 70.089,216.400 69.893 C 216.400 69.251,222.952 62.834,224.089 62.363 C 224.700 62.110,225.200 61.774,225.200 61.615 C 225.200 61.457,225.920 61.090,226.800 60.800 C 227.680 60.510,228.400 60.148,228.400 59.997 C 228.400 59.693,232.163 58.400,233.046 58.400 C 233.351 58.400,233.600 58.240,233.600 58.045 C 233.600 57.850,234.815 57.466,236.300 57.193 C 237.785 56.919,239.180 56.556,239.400 56.387 C 239.892 56.008,246.320 55.203,248.867 55.201 C 249.893 55.201,250.796 55.011,250.874 54.779 C 250.970 54.490,259.932 54.366,279.580 54.384 C 306.004 54.407,318.591 54.045,319.200 53.246 C 319.310 53.102,321.281 52.670,323.580 52.286 C 325.879 51.902,327.859 51.437,327.980 51.252 C 328.101 51.067,329.145 50.692,330.300 50.418 C 331.455 50.144,332.400 49.797,332.400 49.647 C 332.400 49.497,333.210 49.135,334.200 48.843 C 335.190 48.551,336.000 48.152,336.000 47.956 C 336.000 47.760,336.231 47.600,336.513 47.600 C 338.230 47.600,347.506 39.385,348.177 37.271 C 348.330 36.792,348.610 36.400,348.801 36.400 C 348.992 36.400,349.376 35.770,349.654 35.000 C 349.933 34.230,350.292 33.600,350.453 33.600 C 350.614 33.600,350.870 33.195,351.021 32.700 C 351.172 32.205,351.623 31.068,352.024 30.173 C 352.425 29.279,352.978 27.299,353.253 25.773 C 353.528 24.248,353.937 22.875,354.163 22.723 C 354.413 22.554,354.635 18.948,354.734 13.423 L 354.895 4.400 352.948 4.403 C 351.876 4.404,349.830 4.516,348.400 4.651 L 345.800 4.897 345.757 11.890 C 345.733 15.871,345.549 18.994,345.329 19.141 C 345.118 19.283,344.716 20.705,344.436 22.300 C 344.156 23.895,343.764 25.200,343.564 25.200 C 343.364 25.200,343.200 25.476,343.200 25.813 C 343.200 26.150,342.902 27.095,342.538 27.913 C 342.174 28.731,341.904 29.535,341.938 29.700 C 341.972 29.865,341.816 30.000,341.590 30.000 C 341.365 30.000,341.009 30.450,340.800 31.000 C 340.591 31.550,340.235 32.000,340.010 32.000 C 339.784 32.000,339.600 32.248,339.600 32.551 C 339.600 33.206,335.601 37.197,334.943 37.199 C 334.691 37.199,334.382 37.470,334.255 37.800 C 334.129 38.130,333.758 38.400,333.432 38.400 C 333.106 38.400,332.696 38.631,332.520 38.914 C 332.148 39.512,327.811 41.351,325.200 42.018 C 324.210 42.271,323.215 42.630,322.988 42.815 C 322.762 43.000,320.962 43.379,318.988 43.658 C 317.015 43.936,315.310 44.281,315.200 44.423 C 315.090 44.565,313.290 44.807,311.200 44.960 C 307.485 45.233,307.421 45.223,308.347 44.519 C 308.869 44.124,309.634 43.485,310.047 43.100 C 310.461 42.715,310.937 42.400,311.106 42.400 C 311.608 42.400,315.167 38.510,315.666 37.415 C 315.920 36.857,316.267 36.400,316.437 36.400 C 316.607 36.400,316.860 36.041,316.999 35.602 C 317.138 35.164,317.477 34.579,317.752 34.302 C 318.409 33.641,320.265 29.693,320.626 28.187 C 320.782 27.534,321.058 26.810,321.240 26.578 C 321.676 26.019,322.800 19.511,322.800 17.548 C 322.800 16.696,322.980 16.000,323.200 16.000 C 323.453 16.000,323.600 13.133,323.600 8.200 L 323.600 0.400 320.700 0.472 C 319.105 0.512,316.945 0.612,315.900 0.694 M151.600 129.000 L 151.600 159.600 81.377 159.600 C 12.065 159.600,7.600 159.676,7.600 160.847 C 7.600 161.041,7.318 161.200,6.974 161.200 C 6.214 161.200,2.400 165.034,2.400 165.798 C 2.400 166.098,2.115 166.628,1.767 166.976 C 0.331 168.412,0.178 178.800,1.593 178.800 C 1.769 178.800,2.023 179.236,2.156 179.768 C 2.443 180.913,5.813 184.400,6.632 184.400 C 6.944 184.400,7.200 184.562,7.200 184.761 C 7.200 185.211,9.402 186.000,10.660 186.000 C 11.177 186.000,11.600 186.180,11.600 186.400 C 11.600 186.665,35.200 186.800,81.600 186.800 L 151.600 186.800 151.600 217.200 L 151.600 247.600 167.800 247.600 L 184.000 247.600 184.000 259.400 C 184.000 265.890,184.137 271.200,184.305 271.200 C 184.473 271.200,184.834 272.145,185.106 273.300 C 185.379 274.455,185.872 275.600,186.201 275.844 C 186.530 276.088,186.800 276.483,186.800 276.721 C 186.800 276.960,187.168 277.412,187.618 277.728 C 188.646 278.447,187.731 278.948,186.125 278.546 C 185.569 278.406,184.998 278.461,184.857 278.668 C 184.716 278.874,182.263 279.270,179.408 279.548 C 176.552 279.825,174.122 280.190,174.008 280.359 C 173.893 280.528,172.756 280.872,171.481 281.123 C 170.206 281.375,168.888 281.855,168.552 282.190 C 168.217 282.526,167.700 282.800,167.402 282.800 C 167.105 282.800,166.327 283.250,165.673 283.800 C 165.019 284.350,164.285 284.800,164.042 284.800 C 163.799 284.800,163.600 285.042,163.600 285.338 C 163.600 285.634,163.247 286.196,162.815 286.586 C 162.383 286.977,161.820 287.950,161.563 288.748 C 161.305 289.547,161.001 290.362,160.887 290.560 C 160.560 291.125,160.525 295.600,160.848 295.600 C 161.006 295.600,161.257 296.150,161.405 296.822 C 161.867 298.925,165.838 302.400,167.780 302.400 C 168.121 302.400,168.400 302.562,168.400 302.759 C 168.400 303.190,172.795 304.000,175.133 304.000 C 176.050 304.000,176.800 304.180,176.800 304.400 C 176.800 304.655,180.133 304.800,186.000 304.800 C 191.060 304.800,195.200 304.654,195.200 304.476 C 195.200 304.096,217.431 303.181,226.377 303.192 C 232.886 303.200,241.600 303.905,241.600 304.423 C 241.600 304.592,242.324 304.852,243.208 305.001 C 244.092 305.151,245.069 305.527,245.379 305.836 C 245.689 306.146,246.102 306.400,246.297 306.400 C 249.126 306.400,249.844 312.039,247.306 314.320 C 244.646 316.710,244.517 316.787,242.412 317.273 C 241.306 317.528,240.400 317.866,240.400 318.024 C 240.400 318.181,238.555 318.541,236.300 318.824 C 234.045 319.106,232.110 319.461,232.000 319.612 C 231.803 319.883,223.571 320.565,215.000 321.022 C 212.580 321.151,210.240 321.404,209.800 321.584 C 209.360 321.764,206.759 322.114,204.019 322.363 C 201.280 322.611,198.940 322.969,198.819 323.158 C 198.699 323.346,197.295 323.719,195.700 323.986 C 194.105 324.254,192.800 324.597,192.800 324.749 C 192.800 324.901,191.990 325.265,191.000 325.557 C 190.010 325.849,189.200 326.231,189.200 326.405 C 189.200 326.579,188.660 326.910,188.000 327.140 C 187.340 327.370,186.800 327.748,186.800 327.979 C 186.800 328.211,186.627 328.355,186.416 328.300 C 185.773 328.132,182.722 331.311,182.097 332.800 C 181.774 333.570,181.305 334.328,181.055 334.485 C 180.738 334.683,180.562 338.051,180.476 345.558 L 180.353 356.345 202.476 356.473 C 218.935 356.567,224.805 356.724,225.400 357.086 C 225.840 357.353,227.632 357.852,229.381 358.194 C 231.131 358.536,232.661 358.955,232.781 359.125 C 232.902 359.295,233.765 359.680,234.700 359.981 C 235.635 360.282,236.400 360.665,236.400 360.833 C 236.400 361.001,237.051 361.353,237.846 361.615 C 238.642 361.878,239.614 362.387,240.006 362.746 C 241.117 363.764,242.981 365.308,244.351 366.345 C 245.038 366.865,245.600 367.440,245.600 367.623 C 245.600 367.806,246.226 368.639,246.992 369.474 C 247.757 370.310,248.601 371.535,248.868 372.197 C 249.135 372.858,249.575 373.536,249.845 373.702 C 250.116 373.869,250.463 374.578,250.618 375.280 C 250.772 375.981,251.124 376.781,251.401 377.058 C 251.677 377.334,252.032 378.244,252.189 379.079 C 252.345 379.915,252.633 380.697,252.827 380.817 C 253.022 380.937,253.402 382.828,253.672 385.018 C 253.942 387.208,254.261 389.090,254.381 389.200 C 254.669 389.463,254.669 400.140,254.382 400.400 C 254.260 400.510,253.946 402.568,253.684 404.974 C 253.421 407.380,253.047 409.450,252.852 409.574 C 252.656 409.698,252.266 410.835,251.985 412.100 C 251.703 413.365,251.345 414.400,251.188 414.400 C 251.032 414.400,250.677 415.210,250.400 416.200 C 250.123 417.190,249.773 418.000,249.623 418.000 C 249.472 418.000,249.102 418.630,248.800 419.400 C 248.498 420.170,248.143 420.800,248.012 420.800 C 247.880 420.800,247.433 421.385,247.018 422.100 C 246.262 423.402,241.859 427.897,239.868 429.400 C 239.285 429.840,238.424 430.510,237.956 430.888 C 237.488 431.267,236.730 431.695,236.271 431.841 C 235.813 431.986,235.198 432.345,234.906 432.637 C 234.613 432.929,233.750 433.286,232.987 433.429 C 232.224 433.572,231.600 433.860,231.600 434.068 C 231.600 434.277,231.432 434.344,231.228 434.217 C 231.023 434.091,230.755 434.149,230.633 434.347 C 230.510 434.545,229.193 434.935,227.705 435.212 C 226.217 435.490,224.910 435.853,224.800 436.019 C 224.237 436.869,209.113 437.543,204.102 436.941 L 202.005 436.689 201.902 405.445 L 201.800 374.200 191.100 374.093 L 180.400 373.987 180.400 413.393 C 180.400 447.125,180.482 452.800,180.967 452.800 C 181.278 452.800,181.593 452.963,181.667 453.163 C 182.217 454.662,223.996 454.702,227.400 453.207 C 227.840 453.013,230.090 452.554,232.400 452.187 C 234.710 451.819,236.690 451.387,236.800 451.227 C 236.910 451.066,238.125 450.700,239.500 450.413 C 240.875 450.126,242.000 449.757,242.000 449.593 C 242.000 449.429,242.810 449.091,243.800 448.842 C 244.790 448.592,245.600 448.231,245.600 448.039 C 245.600 447.846,246.224 447.572,246.987 447.429 C 247.750 447.286,248.613 446.929,248.906 446.637 C 249.198 446.345,249.879 445.967,250.419 445.798 C 250.958 445.629,252.152 444.975,253.072 444.345 C 253.992 443.715,254.847 443.200,254.972 443.200 C 255.541 443.200,266.000 433.056,266.000 432.505 C 266.000 432.296,266.450 431.601,267.000 430.962 C 267.549 430.323,267.999 429.575,268.000 429.300 C 268.000 429.025,268.158 428.800,268.351 428.800 C 268.545 428.800,268.927 428.260,269.200 427.600 C 269.473 426.940,269.855 426.400,270.049 426.400 C 270.242 426.400,270.400 426.201,270.400 425.958 C 270.400 425.715,270.818 424.680,271.330 423.658 C 271.841 422.636,272.510 420.945,272.817 419.900 C 273.124 418.855,273.496 418.000,273.644 418.000 C 273.792 418.000,274.146 416.830,274.430 415.400 C 274.714 413.970,275.065 412.800,275.209 412.800 C 275.353 412.800,275.694 410.955,275.966 408.700 C 276.239 406.445,276.646 404.257,276.872 403.839 C 277.414 402.836,277.422 385.586,276.882 384.561 C 276.661 384.143,276.271 382.184,276.016 380.208 C 275.760 378.233,275.408 376.523,275.233 376.408 C 275.059 376.294,274.684 375.210,274.400 374.000 C 274.116 372.790,273.775 371.710,273.642 371.600 C 273.509 371.490,273.063 370.410,272.651 369.200 C 272.240 367.990,271.790 366.910,271.651 366.800 C 271.513 366.690,271.076 365.970,270.680 365.200 C 269.171 362.266,268.745 361.600,268.378 361.600 C 268.170 361.600,268.000 361.332,268.000 361.003 C 268.000 360.675,267.640 360.182,267.200 359.907 C 266.760 359.632,266.400 359.207,266.400 358.962 C 266.400 358.466,260.462 352.400,259.976 352.400 C 259.807 352.400,259.037 351.786,258.265 351.037 C 257.493 350.287,256.487 349.555,256.030 349.410 C 255.574 349.265,255.200 348.990,255.200 348.799 C 255.200 348.608,254.570 348.224,253.800 347.946 C 253.030 347.667,252.400 347.310,252.400 347.152 C 252.400 346.994,251.500 346.565,250.400 346.200 C 249.300 345.835,248.400 345.383,248.400 345.197 C 248.400 345.010,247.410 344.636,246.200 344.365 C 244.990 344.094,244.000 343.746,244.000 343.591 C 244.000 343.436,242.875 343.074,241.500 342.787 C 240.125 342.500,238.910 342.134,238.800 341.974 C 238.690 341.815,237.160 341.464,235.400 341.195 C 233.640 340.927,231.816 340.529,231.347 340.311 C 230.879 340.094,229.926 340.041,229.231 340.193 C 228.399 340.376,227.747 340.288,227.322 339.935 C 226.436 339.201,194.736 339.192,194.491 339.926 C 194.138 340.986,190.000 340.252,190.000 339.130 C 190.000 337.962,191.143 336.000,191.823 336.000 C 192.154 336.000,192.522 335.746,192.641 335.436 C 192.761 335.126,193.334 334.753,193.915 334.607 C 194.497 334.461,195.698 334.018,196.586 333.622 C 197.474 333.226,199.730 332.682,201.600 332.414 C 203.470 332.146,205.302 331.770,205.671 331.578 C 206.040 331.386,209.865 331.005,214.171 330.731 C 218.477 330.457,222.000 330.090,222.000 329.916 C 222.000 329.742,222.897 329.600,223.992 329.600 C 227.456 329.600,236.194 328.715,236.333 328.350 C 236.407 328.158,236.999 328.000,237.650 328.000 C 239.181 328.000,244.880 326.826,245.400 326.403 C 245.620 326.225,246.565 325.874,247.500 325.624 C 248.435 325.374,249.200 325.010,249.200 324.816 C 249.200 324.622,249.752 324.342,250.427 324.194 C 251.102 324.046,251.751 323.672,251.870 323.362 C 251.988 323.053,252.268 322.800,252.490 322.800 C 253.016 322.800,256.000 319.816,256.000 319.290 C 256.000 319.068,256.253 318.788,256.562 318.670 C 256.872 318.551,257.254 317.857,257.413 317.127 C 257.571 316.397,257.886 315.682,258.112 315.538 C 258.668 315.184,258.731 306.860,258.181 306.485 C 257.950 306.328,257.538 305.435,257.264 304.500 C 256.991 303.565,256.617 302.800,256.432 302.800 C 256.248 302.800,255.891 302.305,255.640 301.700 C 255.220 300.687,254.397 300.011,251.631 298.400 C 251.064 298.070,250.468 297.620,250.306 297.400 C 250.144 297.180,250.009 297.139,250.006 297.309 C 250.003 297.479,249.595 297.353,249.100 297.029 C 248.605 296.705,247.435 296.318,246.500 296.169 C 245.565 296.020,244.800 295.768,244.800 295.609 C 244.800 295.249,238.844 294.399,236.324 294.399 C 235.292 294.400,234.336 294.220,234.200 294.000 C 233.894 293.506,215.600 293.447,215.600 293.941 C 215.600 294.312,208.130 294.657,191.600 295.049 C 181.324 295.294,173.752 294.874,173.212 294.031 C 173.095 293.849,172.415 293.574,171.700 293.418 C 170.586 293.177,169.777 292.000,170.725 292.000 C 170.903 292.000,171.448 291.629,171.935 291.175 C 172.530 290.621,173.969 290.148,176.311 289.739 C 178.230 289.403,180.430 288.969,181.200 288.775 C 181.970 288.580,184.895 288.212,187.700 287.957 C 190.505 287.701,192.800 287.372,192.800 287.224 C 192.800 287.077,194.150 286.729,195.800 286.452 C 197.450 286.175,198.800 285.787,198.800 285.589 C 198.800 285.392,199.506 285.041,200.369 284.808 C 201.232 284.576,201.999 284.203,202.073 283.980 C 202.148 283.757,203.250 283.302,204.523 282.970 C 208.380 281.962,214.800 277.016,214.800 275.052 C 214.800 274.693,214.958 274.400,215.151 274.400 C 216.096 274.400,216.496 270.473,216.687 259.300 L 216.888 247.600 232.844 247.600 L 248.800 247.600 248.800 217.200 L 248.800 186.800 319.000 186.800 C 357.610 186.800,389.200 186.663,389.200 186.495 C 389.200 186.327,390.098 185.976,391.195 185.716 C 392.292 185.455,393.482 185.007,393.840 184.721 C 394.665 184.060,397.663 181.066,398.228 180.339 C 400.345 177.613,400.428 168.338,398.357 165.950 C 397.941 165.470,397.600 164.931,397.600 164.753 C 397.600 164.155,395.378 162.146,394.082 161.572 C 393.377 161.260,392.800 160.877,392.800 160.721 C 392.800 159.693,386.982 159.604,319.300 159.602 L 248.800 159.600 248.800 129.000 L 248.800 98.400 200.200 98.400 L 151.600 98.400 151.600 129.000 M141.600 105.979 C 141.270 106.162,139.932 106.509,138.627 106.750 C 137.322 106.991,136.152 107.326,136.027 107.495 C 135.902 107.663,135.283 108.068,134.652 108.394 C 133.301 109.091,130.400 112.273,130.400 113.056 C 130.400 113.355,130.243 113.600,130.052 113.600 C 129.438 113.600,128.671 117.204,128.658 120.146 C 128.645 123.106,129.431 127.200,130.013 127.200 C 130.196 127.200,130.470 127.605,130.621 128.100 C 131.622 131.379,136.880 134.373,142.191 134.690 L 146.000 134.918 146.000 120.259 L 146.000 105.600 144.100 105.624 C 143.055 105.636,141.930 105.796,141.600 105.979 M252.000 120.260 L 252.000 134.921 255.900 134.674 C 259.640 134.437,262.400 133.774,262.400 133.112 C 262.400 132.941,262.699 132.800,263.064 132.800 C 263.872 132.800,267.403 129.251,267.781 128.059 C 267.931 127.586,268.200 127.200,268.379 127.200 C 268.971 127.200,269.600 123.697,269.600 120.400 C 269.600 117.042,268.969 113.600,268.353 113.600 C 268.159 113.600,268.000 113.355,268.000 113.056 C 268.000 112.273,265.099 109.091,263.748 108.394 C 263.117 108.068,262.498 107.663,262.373 107.495 C 262.248 107.326,261.078 106.991,259.773 106.749 C 258.468 106.508,257.087 106.151,256.705 105.955 C 256.323 105.760,255.108 105.600,254.005 105.600 L 252.000 105.600 252.000 120.260 M131.400 342.896 C 129.420 343.108,127.710 343.417,127.600 343.583 C 127.490 343.748,126.185 344.110,124.700 344.387 C 123.215 344.664,122.000 345.026,122.000 345.191 C 122.000 345.356,120.920 345.720,119.600 346.000 C 118.280 346.280,117.200 346.665,117.200 346.855 C 117.200 347.045,117.065 347.172,116.900 347.138 C 116.514 347.059,113.463 348.402,113.200 348.768 C 113.090 348.920,112.428 349.277,111.729 349.559 C 111.030 349.842,110.359 350.331,110.238 350.646 C 109.975 351.330,110.814 355.200,111.225 355.200 C 111.384 355.200,111.746 356.370,112.030 357.800 C 112.314 359.230,112.669 360.400,112.819 360.400 C 112.968 360.400,113.320 361.480,113.600 362.800 C 113.880 364.120,114.265 365.200,114.455 365.200 C 114.645 365.200,114.800 365.470,114.800 365.800 C 114.800 366.130,115.070 366.400,115.400 366.400 C 115.730 366.400,116.000 366.220,116.000 366.000 C 116.000 365.780,116.226 365.600,116.501 365.600 C 116.777 365.600,118.301 364.970,119.889 364.200 C 121.476 363.430,123.050 362.800,123.387 362.800 C 123.724 362.800,124.000 362.633,124.000 362.428 C 124.000 362.224,125.035 361.843,126.300 361.582 C 127.565 361.320,128.695 360.956,128.812 360.772 C 129.618 359.501,143.965 359.481,144.777 360.751 C 144.900 360.943,145.570 361.223,146.266 361.374 C 146.962 361.525,148.042 362.088,148.666 362.624 C 149.290 363.160,150.025 363.599,150.300 363.600 C 150.575 363.600,150.800 363.771,150.800 363.979 C 150.800 364.188,151.262 364.858,151.828 365.468 C 152.393 366.078,152.955 367.077,153.078 367.688 C 153.200 368.300,153.452 368.800,153.637 368.800 C 153.823 368.800,153.870 369.072,153.743 369.405 C 153.615 369.738,153.730 370.275,153.998 370.598 C 154.313 370.977,154.396 371.790,154.232 372.892 C 154.093 373.832,153.939 375.005,153.890 375.500 C 153.840 375.995,153.685 376.400,153.543 376.400 C 153.402 376.400,153.165 376.886,153.016 377.479 C 152.635 378.998,147.595 383.850,146.045 384.190 C 145.360 384.341,144.800 384.595,144.800 384.756 C 144.800 384.917,143.855 385.288,142.700 385.581 C 141.545 385.874,140.478 386.303,140.329 386.534 C 140.160 386.796,136.950 387.020,131.829 387.128 L 123.600 387.301 123.600 395.250 L 123.600 403.200 131.200 403.200 C 136.000 403.200,138.800 403.347,138.800 403.600 C 138.800 403.820,139.295 404.001,139.900 404.002 C 141.097 404.005,143.726 404.623,145.000 405.201 C 145.440 405.401,146.430 405.839,147.200 406.175 C 150.400 407.570,154.239 410.719,154.911 412.500 C 155.056 412.885,155.353 413.200,155.572 413.200 C 155.790 413.200,156.192 414.280,156.464 415.600 C 156.737 416.920,157.104 418.000,157.280 418.000 C 157.456 418.000,157.600 419.440,157.600 421.200 C 157.600 423.067,157.433 424.400,157.200 424.400 C 156.980 424.400,156.800 424.752,156.800 425.181 C 156.800 425.933,156.039 427.987,155.608 428.400 C 155.493 428.510,155.129 429.124,154.799 429.763 C 154.052 431.215,152.424 432.965,151.500 433.312 C 151.115 433.457,150.800 433.771,150.800 434.011 C 150.800 434.251,150.640 434.349,150.445 434.228 C 150.250 434.107,149.868 434.277,149.596 434.604 C 149.324 434.932,148.896 435.200,148.645 435.200 C 148.394 435.200,147.548 435.543,146.766 435.962 C 145.984 436.381,144.321 436.852,143.072 437.008 C 141.822 437.164,140.800 437.451,140.800 437.646 C 140.800 437.841,138.820 438.000,136.400 438.000 C 133.733 438.000,132.000 437.842,132.000 437.600 C 132.000 437.380,131.346 437.200,130.546 437.200 C 128.631 437.200,124.000 436.338,124.000 435.982 C 124.000 435.828,123.291 435.589,122.423 435.450 C 121.556 435.311,120.341 434.989,119.723 434.733 C 119.106 434.477,118.510 434.246,118.400 434.219 C 118.290 434.193,117.840 433.978,117.400 433.741 C 116.960 433.504,116.083 433.187,115.452 433.036 C 114.820 432.884,114.043 432.500,113.724 432.181 C 111.795 430.252,110.759 430.932,110.029 434.607 C 109.745 436.033,109.353 437.200,109.157 437.200 C 108.960 437.200,108.800 437.623,108.800 438.140 C 108.800 439.035,108.313 440.860,107.611 442.600 C 106.010 446.565,106.204 448.075,108.407 448.802 C 109.283 449.092,110.000 449.467,110.000 449.637 C 110.000 449.807,110.405 450.070,110.900 450.221 C 111.395 450.372,112.520 450.817,113.400 451.210 C 114.280 451.603,116.125 452.145,117.500 452.414 C 118.875 452.684,120.000 453.038,120.000 453.201 C 120.000 454.491,143.660 455.156,150.300 454.051 C 152.115 453.749,153.600 453.373,153.600 453.215 C 153.600 453.057,154.635 452.699,155.900 452.421 C 157.165 452.142,159.150 451.483,160.312 450.957 C 161.473 450.431,162.598 450.000,162.812 450.000 C 163.025 450.000,163.200 449.820,163.200 449.600 C 163.200 449.380,163.425 449.200,163.700 449.200 C 163.975 449.199,164.717 448.754,165.349 448.211 C 165.981 447.667,166.836 447.116,167.249 446.984 C 167.662 446.853,168.000 446.573,168.000 446.360 C 168.000 446.148,168.315 445.864,168.700 445.729 C 169.523 445.440,173.200 441.750,173.200 441.213 C 173.200 441.011,173.528 440.610,173.929 440.323 C 174.330 440.035,174.914 439.215,175.227 438.500 C 175.539 437.785,175.917 437.200,176.067 437.200 C 176.216 437.200,176.558 436.525,176.827 435.700 C 177.096 434.875,177.488 434.088,177.699 433.951 C 178.151 433.657,179.185 429.475,179.194 427.900 C 179.197 427.295,179.380 426.800,179.600 426.800 C 179.843 426.800,180.000 425.000,180.000 422.200 C 180.000 419.670,179.861 417.600,179.690 417.600 C 179.520 417.600,179.172 416.290,178.917 414.689 C 178.488 411.992,176.895 408.115,175.706 406.871 C 175.428 406.581,175.200 406.191,175.200 406.005 C 175.200 405.474,169.259 399.764,168.069 399.151 C 167.481 398.848,166.820 398.406,166.600 398.168 C 165.940 397.455,161.509 395.659,159.694 395.369 C 157.705 395.051,157.523 394.525,159.200 393.940 C 159.860 393.710,160.400 393.374,160.400 393.193 C 160.400 393.012,160.914 392.751,161.542 392.613 C 162.683 392.362,163.575 391.795,165.497 390.100 C 166.058 389.605,166.671 389.200,166.858 389.200 C 167.411 389.200,170.273 386.177,171.483 384.317 C 172.096 383.373,172.817 382.369,173.084 382.087 C 173.350 381.805,173.686 380.950,173.829 380.187 C 173.972 379.424,174.234 378.800,174.411 378.800 C 174.794 378.800,175.600 375.261,175.600 373.580 C 175.600 372.931,175.780 372.400,176.000 372.400 C 176.231 372.400,176.400 371.133,176.400 369.400 C 176.400 367.667,176.231 366.400,176.000 366.400 C 175.780 366.400,175.600 365.890,175.600 365.267 C 175.600 363.666,174.745 359.600,174.409 359.600 C 174.254 359.600,173.890 358.880,173.600 358.000 C 173.310 357.120,172.929 356.400,172.755 356.400 C 172.580 356.400,172.157 355.808,171.813 355.084 C 171.179 353.749,167.412 349.600,166.833 349.600 C 166.659 349.600,166.031 349.150,165.438 348.600 C 164.844 348.050,164.117 347.600,163.822 347.600 C 163.527 347.600,163.195 347.364,163.084 347.076 C 162.974 346.787,162.113 346.321,161.171 346.038 C 160.229 345.756,159.085 345.289,158.629 345.001 C 158.173 344.713,157.035 344.354,156.100 344.203 C 155.165 344.053,154.400 343.791,154.400 343.621 C 154.400 342.592,138.827 342.101,131.400 342.896 " stroke="none" fill="#1c3c54" fill-rule="evenodd"></path><path id="path1" d="M160.501 293.000 C 160.505 293.880,160.587 294.193,160.683 293.695 C 160.779 293.198,160.775 292.478,160.675 292.095 C 160.575 291.713,160.496 292.120,160.501 293.000 M192.305 340.283 C 192.802 340.379,193.522 340.375,193.905 340.275 C 194.287 340.175,193.880 340.096,193.000 340.101 C 192.120 340.105,191.807 340.187,192.305 340.283 M254.493 394.400 C 254.493 395.170,254.575 395.485,254.676 395.100 C 254.776 394.715,254.776 394.085,254.676 393.700 C 254.575 393.315,254.493 393.630,254.493 394.400 " stroke="none" fill="#203c54" fill-rule="evenodd"></path><path id="path2" d="M160.501 293.000 C 160.505 293.880,160.587 294.193,160.683 293.695 C 160.779 293.198,160.775 292.478,160.675 292.095 C 160.575 291.713,160.496 292.120,160.501 293.000 M192.305 340.283 C 192.802 340.379,193.522 340.375,193.905 340.275 C 194.287 340.175,193.880 340.096,193.000 340.101 C 192.120 340.105,191.807 340.187,192.305 340.283 M254.493 394.400 C 254.493 395.170,254.575 395.485,254.676 395.100 C 254.776 394.715,254.776 394.085,254.676 393.700 C 254.575 393.315,254.493 393.630,254.493 394.400 " stroke="none" fill="#203c54" fill-rule="evenodd"></path><path id="path3" d="M160.501 293.000 C 160.505 293.880,160.587 294.193,160.683 293.695 C 160.779 293.198,160.775 292.478,160.675 292.095 C 160.575 291.713,160.496 292.120,160.501 293.000 M192.305 340.283 C 192.802 340.379,193.522 340.375,193.905 340.275 C 194.287 340.175,193.880 340.096,193.000 340.101 C 192.120 340.105,191.807 340.187,192.305 340.283 M254.493 394.400 C 254.493 395.170,254.575 395.485,254.676 395.100 C 254.776 394.715,254.776 394.085,254.676 393.700 C 254.575 393.315,254.493 393.630,254.493 394.400 " stroke="none" fill="#203c54" fill-rule="evenodd"></path><path id="path4" d="M160.501 293.000 C 160.505 293.880,160.587 294.193,160.683 293.695 C 160.779 293.198,160.775 292.478,160.675 292.095 C 160.575 291.713,160.496 292.120,160.501 293.000 M192.305 340.283 C 192.802 340.379,193.522 340.375,193.905 340.275 C 194.287 340.175,193.880 340.096,193.000 340.101 C 192.120 340.105,191.807 340.187,192.305 340.283 M254.493 394.400 C 254.493 395.170,254.575 395.485,254.676 395.100 C 254.776 394.715,254.776 394.085,254.676 393.700 C 254.575 393.315,254.493 393.630,254.493 394.400 " stroke="none" fill="#203c54" fill-rule="evenodd"></path></g></svg>