<svg id="svg" version="1.1" xmlns="http://www.w3.org/2000/svg" xmlns:xlink="http://www.w3.org/1999/xlink" width="400" height="400" viewBox="0, 0, 400,400"><g id="svgg"><path id="path0" d="M50.958 115.105 C 33.430 115.232,35.131 114.475,34.703 122.341 C 34.032 134.669,33.783 137.827,33.438 138.363 C 33.238 138.672,32.935 145.433,32.763 153.387 C 32.591 161.340,32.249 169.367,32.003 171.224 C 31.305 176.497,30.854 182.784,30.215 196.200 C 29.361 214.111,29.006 218.114,28.159 219.406 C 27.616 220.235,27.385 221.726,27.176 225.745 C 26.978 229.573,26.712 231.367,26.197 232.351 C 25.026 234.590,24.275 256.413,25.333 257.468 C 25.760 257.894,41.689 258.169,45.057 257.809 C 47.999 257.494,48.800 256.591,48.800 253.594 C 48.800 252.688,49.016 251.554,49.281 251.074 C 49.622 250.455,49.846 245.071,50.049 232.600 C 50.207 222.920,50.546 213.110,50.802 210.800 C 51.567 203.906,51.979 195.860,52.401 179.600 C 53.213 148.290,53.518 144.370,55.047 145.639 C 55.334 145.877,55.690 146.461,55.838 146.936 C 55.986 147.411,56.638 148.543,57.287 149.451 C 58.312 150.887,58.566 151.822,59.229 156.603 C 59.752 160.376,60.300 162.748,60.972 164.152 C 61.511 165.278,62.150 167.640,62.392 169.400 C 63.079 174.381,63.125 174.514,64.944 176.731 C 66.301 178.386,66.809 179.459,67.377 181.869 C 67.772 183.545,68.448 185.514,68.879 186.245 C 69.422 187.165,69.785 188.886,70.059 191.846 C 70.357 195.062,70.698 196.585,71.439 198.002 C 71.980 199.037,72.594 200.935,72.803 202.221 C 73.013 203.506,73.461 205.142,73.800 205.857 C 74.139 206.571,74.698 208.831,75.042 210.878 C 75.385 212.925,76.115 215.590,76.663 216.800 C 77.211 218.010,77.912 220.665,78.220 222.701 C 78.528 224.736,79.134 227.176,79.565 228.123 C 79.997 229.070,80.574 230.735,80.847 231.823 C 81.371 233.901,82.480 236.057,83.716 237.400 C 85.183 238.993,85.898 240.655,86.355 243.540 C 86.611 245.157,87.069 246.959,87.372 247.545 C 87.675 248.131,88.146 249.778,88.419 251.205 C 89.342 256.035,89.552 256.118,100.357 255.933 C 107.436 255.812,108.153 255.734,108.557 255.050 C 108.801 254.638,109.388 253.709,109.863 252.987 C 110.403 252.165,110.990 250.125,111.431 247.537 C 111.818 245.261,112.555 242.551,113.068 241.513 C 113.580 240.476,114.000 239.283,114.000 238.862 C 114.000 237.553,115.121 235.338,116.285 234.348 C 118.015 232.877,118.603 231.672,119.381 228.000 C 119.777 226.130,120.440 224.120,120.854 223.534 C 121.268 222.947,121.705 221.867,121.824 221.134 C 122.185 218.924,122.911 216.637,123.459 215.982 C 123.744 215.641,124.176 214.381,124.419 213.182 C 125.379 208.454,126.106 205.415,126.418 204.822 C 126.598 204.480,127.039 202.940,127.398 201.400 C 127.757 199.860,128.402 198.000,128.831 197.267 C 129.261 196.533,129.793 194.663,130.013 193.110 C 130.553 189.302,130.778 188.493,131.867 186.440 C 132.380 185.473,132.800 184.339,132.800 183.921 C 132.800 182.733,133.948 180.770,135.826 178.746 C 136.925 177.561,137.615 176.405,137.737 175.546 C 138.514 170.047,138.812 168.648,139.330 168.064 C 140.009 167.300,140.795 164.680,140.798 163.168 C 140.799 162.600,141.236 161.274,141.769 160.222 C 142.302 159.170,142.847 157.384,142.982 156.254 C 143.609 150.969,144.136 148.961,145.354 147.200 C 146.039 146.210,146.793 145.051,147.029 144.624 C 149.068 140.930,149.343 143.356,149.683 168.043 C 150.093 197.786,151.115 227.759,151.754 228.749 C 151.948 229.050,152.309 235.390,152.555 242.836 C 152.955 254.925,153.080 256.451,153.716 257.087 C 154.716 258.086,176.982 258.191,177.609 257.200 C 178.162 256.324,178.090 234.587,177.528 232.600 C 177.278 231.720,176.921 228.300,176.734 225.000 C 176.546 221.700,176.233 216.210,176.037 212.800 C 175.841 209.390,175.459 200.660,175.188 193.400 C 174.773 182.279,174.582 179.948,173.977 178.600 C 173.439 177.403,173.220 175.689,173.106 171.800 C 172.986 167.698,172.796 166.304,172.206 165.200 C 171.638 164.137,171.383 162.452,171.144 158.200 C 170.971 155.120,170.651 149.630,170.432 146.000 C 170.213 142.370,170.027 136.571,170.017 133.114 C 170.004 128.414,169.837 126.347,169.353 124.923 C 168.923 123.656,168.779 122.316,168.924 120.918 C 169.555 114.798,169.280 114.702,151.638 114.869 C 134.701 115.029,135.485 114.764,134.237 120.752 C 133.908 122.331,133.279 124.128,132.839 124.745 C 132.399 125.363,131.743 127.203,131.380 128.834 C 131.018 130.465,130.385 132.386,129.973 133.102 C 129.561 133.818,129.041 135.866,128.817 137.653 C 128.579 139.548,127.987 141.797,127.395 143.046 C 126.838 144.226,126.213 146.079,126.007 147.166 C 125.801 148.252,125.262 149.928,124.810 150.890 C 124.357 151.852,123.736 154.191,123.429 156.088 C 123.077 158.263,122.489 160.189,121.835 161.303 C 121.266 162.275,120.800 163.437,120.800 163.886 C 120.800 165.281,119.683 167.459,118.424 168.518 C 116.910 169.793,116.194 171.460,115.671 174.935 C 115.416 176.632,114.879 178.246,114.257 179.185 C 113.706 180.018,113.143 181.397,113.007 182.250 C 112.575 184.947,111.926 187.348,111.182 189.000 C 110.785 189.880,110.292 192.220,110.086 194.200 C 109.864 196.325,109.363 198.537,108.863 199.600 C 108.377 200.632,107.686 203.620,107.245 206.600 C 106.821 209.460,106.102 212.610,105.646 213.600 C 105.190 214.590,104.814 215.904,104.809 216.520 C 104.798 217.865,103.850 219.819,103.061 220.121 C 102.257 220.430,101.215 219.206,97.135 213.168 C 96.417 212.105,95.990 210.548,95.480 207.134 C 95.101 204.604,94.424 201.772,93.974 200.841 C 93.461 199.778,92.947 197.357,92.592 194.332 C 92.282 191.683,91.834 189.282,91.597 188.996 C 91.026 188.309,90.483 186.373,89.974 183.215 C 89.745 181.794,89.407 180.444,89.222 180.215 C 88.522 179.348,87.614 175.933,87.203 172.620 C 86.947 170.562,86.438 168.581,85.937 167.690 C 85.475 166.870,84.830 165.120,84.502 163.800 C 84.175 162.480,83.522 161.036,83.053 160.591 C 80.783 158.439,80.403 157.701,79.629 153.941 C 79.196 151.838,78.472 149.490,78.019 148.723 C 77.567 147.956,77.002 146.264,76.764 144.964 C 76.525 143.664,76.009 142.060,75.617 141.400 C 74.719 139.891,74.417 138.618,73.999 134.578 C 73.790 132.562,73.360 130.839,72.849 129.973 C 72.400 129.211,71.761 127.421,71.429 125.994 C 71.098 124.567,70.477 122.677,70.049 121.793 C 69.621 120.909,69.141 119.469,68.983 118.593 C 68.322 114.939,68.521 114.977,50.958 115.105 M228.600 172.882 C 226.902 173.562,225.755 173.674,221.000 173.625 C 216.180 173.576,215.038 173.691,212.800 174.451 C 211.370 174.937,208.760 175.454,207.000 175.602 C 203.861 175.864,195.821 176.667,192.536 177.046 C 189.353 177.413,189.600 170.574,189.600 258.348 C 189.600 341.231,189.533 338.469,191.549 339.280 C 192.840 339.800,216.256 339.705,217.244 339.176 C 218.733 338.380,218.800 337.003,218.800 307.202 C 218.800 278.158,218.801 278.123,219.641 277.362 C 220.426 276.651,221.439 276.587,234.741 276.400 C 245.052 276.255,249.240 276.062,249.868 275.703 C 250.677 275.240,252.597 274.872,258.600 274.027 C 259.920 273.841,262.170 273.332,263.600 272.895 C 265.030 272.458,267.190 271.878,268.400 271.605 C 269.610 271.332,271.426 270.590,272.435 269.955 C 273.444 269.320,274.556 268.800,274.907 268.800 C 275.257 268.800,276.211 268.170,277.027 267.400 C 277.844 266.630,278.687 266.000,278.900 266.000 C 279.312 266.000,282.587 263.421,284.600 261.511 C 285.260 260.885,286.615 259.614,287.611 258.687 C 289.610 256.824,292.800 252.771,292.800 252.094 C 292.800 251.856,293.229 251.151,293.754 250.527 C 294.865 249.207,295.764 247.192,296.141 245.174 C 296.288 244.390,297.214 242.641,298.200 241.287 C 300.143 238.616,300.607 237.101,300.978 232.200 C 301.111 230.440,301.428 227.332,301.682 225.294 C 302.032 222.489,302.032 220.980,301.682 219.094 C 301.427 217.722,300.912 214.288,300.537 211.462 L 299.855 206.324 297.985 204.385 C 296.957 203.318,295.885 201.889,295.604 201.210 C 295.323 200.530,294.577 199.326,293.946 198.532 C 293.316 197.739,292.800 196.859,292.800 196.576 C 292.800 196.293,292.381 195.553,291.868 194.931 C 291.355 194.309,290.703 192.949,290.418 191.908 C 290.038 190.519,289.402 189.563,288.022 188.308 C 284.935 185.502,284.399 185.155,282.339 184.620 C 281.255 184.339,279.958 183.724,279.458 183.254 C 278.958 182.784,278.407 182.400,278.235 182.400 C 277.752 182.400,275.074 181.126,274.400 180.576 C 274.070 180.306,272.477 179.715,270.859 179.262 C 269.242 178.809,267.488 178.157,266.962 177.812 C 266.436 177.467,265.150 177.094,264.103 176.983 C 258.085 176.343,255.219 175.782,253.438 174.898 C 251.908 174.138,250.498 173.854,247.038 173.607 C 244.597 173.433,241.790 173.003,240.800 172.651 C 238.119 171.699,231.232 171.829,228.600 172.882 M246.000 196.518 L 252.600 197.083 256.300 198.948 C 258.335 199.974,260.000 200.948,260.000 201.113 C 260.000 201.279,261.115 201.857,262.478 202.398 C 265.220 203.487,267.444 205.433,267.860 207.108 C 268.010 207.708,268.485 208.830,268.916 209.600 C 269.348 210.370,269.964 211.886,270.286 212.969 C 270.608 214.052,271.137 215.342,271.461 215.836 C 273.189 218.474,272.996 230.588,271.171 233.971 C 270.748 234.757,270.218 236.148,269.995 237.063 C 269.489 239.137,267.132 242.035,264.693 243.582 C 263.581 244.287,262.519 245.383,262.042 246.318 C 261.604 247.176,260.774 248.187,260.197 248.565 C 259.619 248.944,258.795 249.556,258.365 249.927 C 257.570 250.610,253.512 252.438,250.600 253.423 C 244.044 255.642,222.410 255.315,219.870 252.959 L 218.800 251.968 218.800 225.544 L 218.800 199.121 219.978 198.020 C 221.229 196.852,223.356 196.468,229.200 196.356 C 230.630 196.328,232.340 196.159,233.000 195.980 C 234.348 195.615,236.491 195.703,246.000 196.518 " stroke="none" fill="#eaeaed" fill-rule="evenodd"></path><path id="path1" d="M0.000 200.000 L 0.000 400.000 200.000 400.000 L 400.000 400.000 400.000 200.000 L 400.000 0.000 200.000 0.000 L 0.000 0.000 0.000 200.000 M225.083 53.663 C 230.694 54.498,236.765 59.662,237.820 64.498 C 237.976 65.214,238.530 66.309,239.052 66.931 C 239.573 67.553,240.000 68.207,240.000 68.385 C 240.000 69.078,243.091 71.732,244.800 72.507 C 249.618 74.692,252.928 77.807,254.942 82.052 C 257.178 86.762,261.486 91.780,264.410 93.077 C 266.609 94.053,268.997 96.629,269.615 98.692 C 270.083 100.253,270.691 101.132,274.988 106.446 C 278.446 110.724,280.767 113.138,282.705 114.471 C 283.732 115.179,284.787 116.391,285.361 117.522 C 285.885 118.555,286.693 119.743,287.157 120.162 C 287.621 120.581,288.000 121.081,288.000 121.273 C 288.000 121.465,288.525 122.202,289.167 122.911 C 290.556 124.445,293.237 127.570,293.800 128.311 C 297.593 133.305,301.089 134.394,305.133 131.842 C 305.940 131.333,307.050 130.787,307.600 130.627 C 308.150 130.468,309.680 129.827,311.000 129.202 C 312.320 128.577,314.390 127.867,315.600 127.623 C 318.665 127.006,318.786 126.875,319.066 123.871 C 319.231 122.105,319.488 121.200,319.825 121.200 C 320.105 121.200,320.581 121.106,320.881 120.990 C 321.228 120.857,322.357 122.027,323.964 124.183 C 326.397 127.447,326.577 127.596,328.375 127.834 C 329.406 127.971,330.640 128.379,331.116 128.742 L 331.983 129.400 331.192 131.936 C 330.043 135.616,330.392 141.316,331.815 142.112 C 332.853 142.693,332.048 143.175,330.778 142.732 C 329.598 142.321,327.199 143.261,322.000 146.173 C 321.450 146.481,320.190 147.057,319.200 147.454 C 316.912 148.369,313.600 150.360,313.600 150.820 C 313.600 152.859,317.357 154.502,319.005 153.184 C 319.228 153.006,320.426 152.480,321.668 152.015 C 322.911 151.550,324.120 150.937,324.357 150.652 C 324.593 150.368,325.824 149.798,327.093 149.387 C 328.362 148.976,329.992 148.211,330.715 147.688 C 331.670 146.997,333.050 146.594,335.756 146.216 C 337.805 145.930,339.914 145.414,340.441 145.070 C 340.968 144.726,342.274 144.249,343.343 144.011 C 344.411 143.773,345.979 143.242,346.828 142.832 C 350.158 141.223,363.591 139.392,366.508 140.149 C 369.044 140.807,371.221 144.798,369.594 145.804 C 369.371 145.942,368.911 146.717,368.573 147.527 C 368.234 148.337,367.546 149.450,367.043 150.000 C 366.539 150.550,365.349 152.597,364.398 154.549 C 362.314 158.822,359.836 161.385,355.800 163.439 C 354.260 164.223,352.730 165.092,352.400 165.371 C 352.070 165.650,351.481 165.992,351.091 166.130 C 350.701 166.269,350.269 166.701,350.131 167.091 C 349.994 167.481,349.566 168.160,349.180 168.600 C 348.795 169.040,348.415 169.760,348.337 170.200 C 348.229 170.804,347.825 171.031,346.691 171.124 C 345.349 171.236,345.087 171.449,344.238 173.124 C 342.887 175.788,340.260 177.997,335.826 180.197 C 331.363 182.413,331.514 182.257,332.022 184.096 C 332.993 187.611,336.153 187.732,341.074 184.444 C 343.013 183.148,345.370 181.687,346.310 181.198 C 348.548 180.034,348.800 179.469,348.800 175.614 C 348.800 170.969,350.495 170.470,352.056 174.656 C 353.056 177.338,357.410 180.000,360.794 180.000 C 361.955 180.000,362.768 182.361,362.171 184.000 C 361.475 185.910,361.485 187.750,362.200 189.462 C 363.547 192.685,362.578 196.174,360.588 195.267 C 359.041 194.563,358.612 194.656,354.656 196.552 C 350.937 198.335,350.261 198.805,346.801 202.014 C 343.345 205.220,342.981 210.537,345.848 215.929 C 346.372 216.913,346.804 218.097,346.809 218.560 C 346.815 219.022,347.265 220.480,347.810 221.800 C 348.356 223.120,349.084 225.820,349.430 227.800 C 349.776 229.780,350.393 231.940,350.800 232.600 C 351.208 233.260,351.845 234.700,352.216 235.800 C 352.629 237.027,353.626 238.582,354.796 239.824 C 356.434 241.563,356.795 242.259,357.368 244.779 C 357.735 246.391,358.401 248.451,358.849 249.355 C 359.296 250.260,359.906 251.905,360.203 253.011 C 360.500 254.117,361.206 255.943,361.772 257.069 C 362.337 258.195,362.800 259.307,362.800 259.540 C 362.800 260.560,366.132 271.543,366.853 272.899 C 367.292 273.724,367.988 275.524,368.402 276.899 C 368.815 278.275,369.508 280.480,369.941 281.800 C 370.374 283.120,370.939 284.988,371.196 285.950 C 371.490 287.053,372.328 288.413,373.462 289.625 C 376.806 293.200,378.905 300.667,378.965 309.200 C 379.023 317.457,377.744 319.739,372.379 320.950 C 366.553 322.266,363.197 321.197,360.929 317.303 C 359.505 314.858,356.640 311.832,354.600 310.619 C 353.720 310.096,352.730 309.264,352.400 308.771 C 352.070 308.277,351.336 307.317,350.769 306.637 C 348.793 304.266,346.911 300.986,346.387 299.000 C 346.097 297.900,345.746 296.910,345.607 296.800 C 345.469 296.690,344.116 294.710,342.600 292.400 C 341.084 290.090,339.722 288.110,339.572 288.000 C 339.423 287.890,338.932 287.109,338.482 286.264 C 338.031 285.420,337.053 284.070,336.307 283.264 C 335.562 282.458,334.318 280.809,333.542 279.600 C 332.767 278.390,331.833 277.153,331.466 276.851 C 331.100 276.549,330.800 276.091,330.800 275.833 C 330.800 275.366,327.034 269.406,326.200 268.553 C 325.960 268.307,325.528 267.317,325.241 266.353 C 324.453 263.709,321.753 258.381,320.400 256.800 C 319.741 256.030,319.201 255.295,319.201 255.167 C 319.200 255.039,318.338 254.376,317.285 253.694 C 311.357 249.853,309.415 240.351,313.313 234.257 C 313.997 233.186,314.694 230.471,315.021 227.600 C 315.159 226.390,315.633 223.700,316.075 221.622 C 316.919 217.647,316.844 215.619,315.776 213.553 C 315.445 212.913,315.074 210.907,314.951 209.095 C 314.641 204.522,314.231 203.275,310.774 196.400 C 310.165 195.190,309.402 193.176,309.078 191.924 C 308.496 189.679,307.513 187.957,305.693 186.000 C 305.182 185.450,304.405 184.428,303.967 183.730 C 303.164 182.448,300.991 180.969,297.499 179.329 C 294.239 177.797,291.267 175.209,290.384 173.133 C 289.689 171.499,285.470 169.006,282.410 168.420 C 280.985 168.147,279.095 167.547,278.210 167.086 C 275.800 165.830,267.745 163.660,263.107 163.016 C 260.788 162.694,259.191 161.241,258.417 158.750 C 258.118 157.787,257.668 156.640,257.416 156.200 C 257.164 155.760,256.709 154.590,256.404 153.600 C 255.804 151.654,252.659 145.378,251.794 144.400 C 251.502 144.070,250.901 142.880,250.459 141.755 C 250.017 140.630,249.283 139.100,248.829 138.355 C 248.375 137.610,248.002 136.667,248.001 136.260 C 247.998 134.771,246.668 132.780,244.758 131.408 C 243.681 130.634,242.800 129.756,242.800 129.456 C 242.800 129.157,242.323 128.212,241.740 127.356 C 240.775 125.940,239.574 123.868,238.172 121.200 C 237.883 120.650,237.431 119.300,237.168 118.200 C 236.649 116.029,234.049 110.539,231.578 106.400 C 230.725 104.970,229.499 102.700,228.855 101.355 C 228.210 100.010,227.074 98.300,226.330 97.555 C 225.586 96.810,224.521 95.390,223.964 94.400 C 223.407 93.410,222.746 92.240,222.496 91.800 C 220.780 88.782,218.886 84.323,218.692 82.841 C 218.564 81.873,217.907 80.026,217.230 78.735 C 216.554 77.444,216.000 76.207,216.000 75.986 C 216.000 75.765,215.579 74.913,215.065 74.092 C 210.788 67.269,210.639 58.652,214.753 56.100 C 215.329 55.742,216.133 55.169,216.540 54.825 C 218.306 53.334,220.688 53.010,225.083 53.663 M169.843 112.360 C 171.667 113.574,172.004 115.815,172.002 126.716 C 172.000 136.314,172.044 136.918,172.868 138.516 C 173.495 139.732,173.818 141.318,174.030 144.222 C 174.206 146.628,174.610 148.879,175.035 149.822 C 175.888 151.716,176.214 156.800,176.712 176.000 C 176.959 185.511,177.208 189.675,177.570 190.348 C 177.876 190.918,178.218 193.998,178.427 198.074 C 178.617 201.802,178.864 205.426,178.975 206.126 C 179.086 206.827,179.369 215.590,179.604 225.600 C 179.918 239.014,180.198 244.694,180.668 247.200 C 181.559 251.963,181.216 257.345,179.950 258.443 C 178.488 259.711,177.534 259.800,165.400 259.800 C 149.689 259.800,150.057 259.962,149.765 252.908 C 149.659 250.319,149.399 246.670,149.189 244.800 C 148.979 242.930,148.791 236.090,148.773 229.600 C 148.720 211.067,148.231 195.538,147.669 194.509 C 147.358 193.941,147.129 191.118,147.035 186.709 C 146.543 163.582,145.702 151.956,145.000 158.600 C 144.720 161.252,144.354 162.389,142.980 164.866 C 142.655 165.452,142.221 167.254,142.017 168.869 C 141.323 174.341,138.669 181.520,136.612 183.492 C 135.032 185.006,134.765 185.528,134.221 188.161 C 133.624 191.051,133.169 192.570,132.412 194.200 C 132.208 194.640,131.754 196.167,131.405 197.594 C 131.055 199.020,130.392 200.820,129.931 201.594 C 129.384 202.510,128.972 204.171,128.746 206.363 C 128.522 208.526,128.040 210.484,127.393 211.851 C 126.840 213.020,126.279 214.836,126.146 215.888 C 126.014 216.940,125.486 218.535,124.974 219.434 C 124.462 220.333,123.691 222.763,123.261 224.834 C 122.831 226.905,122.106 229.410,121.649 230.400 C 121.192 231.390,120.814 232.617,120.809 233.126 C 120.797 234.416,120.169 235.480,118.039 237.823 C 116.364 239.666,116.135 240.171,115.469 243.468 C 115.067 245.460,114.406 247.636,114.000 248.304 C 113.594 248.972,113.135 250.392,112.981 251.459 C 111.982 258.389,110.411 259.123,97.264 258.800 C 88.090 258.575,88.111 258.582,87.188 255.154 C 86.955 254.290,86.359 252.985,85.863 252.254 C 85.236 251.331,84.810 249.796,84.469 247.231 C 83.955 243.374,83.530 242.410,81.400 240.280 C 80.406 239.286,79.948 238.290,79.384 235.897 C 78.982 234.194,78.522 232.800,78.360 232.800 C 77.791 232.800,76.853 229.366,76.618 226.421 C 76.487 224.782,76.098 222.892,75.755 222.221 C 74.891 220.534,74.010 217.601,74.004 216.397 C 74.002 215.845,73.567 214.580,73.037 213.585 C 72.372 212.335,71.932 210.547,71.611 207.789 C 71.289 205.018,70.842 203.207,70.148 201.857 C 69.531 200.660,68.928 198.435,68.574 196.057 C 68.258 193.936,67.636 191.346,67.190 190.303 C 66.745 189.260,66.207 187.490,65.994 186.370 C 65.782 185.250,65.075 183.583,64.423 182.667 C 61.497 178.551,61.091 177.620,60.757 174.264 C 60.383 170.495,60.088 169.237,59.379 168.400 C 58.887 167.819,58.291 165.074,57.781 161.042 L 57.534 159.085 56.493 160.125 C 55.463 161.155,55.450 161.247,55.183 169.129 C 55.035 173.509,54.793 177.287,54.645 177.527 C 54.498 177.766,54.278 184.675,54.158 192.881 C 54.038 201.086,53.756 211.040,53.532 215.000 C 53.308 218.960,53.007 224.810,52.863 228.000 C 52.718 231.190,52.444 234.042,52.252 234.339 C 52.061 234.635,51.741 240.035,51.541 246.339 C 51.072 261.099,52.978 259.400,36.889 259.400 C 21.674 259.400,21.782 259.425,21.831 255.992 C 21.914 250.228,22.118 247.109,22.630 243.800 C 22.936 241.820,23.380 235.250,23.616 229.200 C 24.173 214.934,24.557 210.497,25.570 206.636 C 26.027 204.896,26.400 202.504,26.400 201.320 C 26.400 199.893,26.693 198.601,27.270 197.484 C 28.093 195.893,28.159 195.041,28.470 182.000 C 28.652 174.410,29.001 166.760,29.247 165.000 C 29.493 163.240,29.832 159.370,29.999 156.400 C 30.167 153.430,30.490 150.370,30.717 149.600 C 30.945 148.830,31.348 140.910,31.614 132.000 C 32.133 114.568,32.158 114.397,34.356 112.832 C 36.018 111.648,67.619 111.536,69.033 112.709 C 70.869 114.232,72.800 119.368,72.800 122.729 C 72.800 123.240,73.238 124.410,73.773 125.329 C 74.320 126.268,75.038 128.576,75.413 130.600 C 75.779 132.580,76.213 134.380,76.377 134.600 C 76.789 135.153,77.878 139.409,78.186 141.672 C 78.326 142.701,78.759 143.961,79.147 144.472 C 80.015 145.612,80.685 147.327,81.023 149.274 C 81.164 150.085,82.038 151.975,82.965 153.474 C 84.820 156.473,85.754 158.634,86.157 160.859 C 86.302 161.662,86.746 162.742,87.142 163.259 C 88.180 164.612,88.411 165.407,88.828 169.069 C 89.034 170.866,89.544 173.137,89.963 174.115 C 90.382 175.092,91.028 177.401,91.397 179.246 C 91.766 181.091,92.486 183.500,92.997 184.600 C 93.643 185.994,93.999 187.685,94.171 190.179 C 94.353 192.831,94.686 194.327,95.456 195.955 C 96.027 197.163,96.675 199.497,96.895 201.143 C 97.214 203.534,97.755 205.033,99.591 208.614 C 100.854 211.079,102.011 213.590,102.163 214.195 C 102.572 215.824,102.750 215.353,103.599 210.405 C 104.024 207.929,104.640 205.493,104.968 204.992 C 105.296 204.492,105.749 202.613,105.974 200.817 C 106.199 199.022,106.766 196.708,107.234 195.676 C 107.718 194.608,108.322 191.923,108.637 189.441 C 108.973 186.799,109.482 184.588,109.931 183.827 C 110.339 183.136,110.996 181.228,111.392 179.586 C 111.788 177.944,112.429 175.968,112.816 175.196 C 113.202 174.424,113.651 172.714,113.813 171.396 C 114.219 168.087,114.537 167.400,116.812 164.911 C 117.905 163.715,118.800 162.394,118.800 161.976 C 118.800 161.091,119.760 158.405,120.794 156.400 C 121.191 155.630,121.639 154.010,121.790 152.800 C 122.188 149.602,122.778 147.554,123.602 146.507 C 124.001 146.000,124.451 144.643,124.603 143.492 C 124.755 142.342,125.250 140.590,125.703 139.600 C 126.157 138.610,126.842 136.022,127.227 133.848 C 127.678 131.295,128.231 129.484,128.788 128.731 C 129.267 128.083,129.825 126.462,130.043 125.082 C 130.260 123.717,130.862 121.779,131.382 120.776 C 131.903 119.773,132.461 118.064,132.624 116.979 C 132.928 114.954,134.028 113.044,135.161 112.574 C 137.753 111.498,168.264 111.311,169.843 112.360 M255.000 170.474 C 256.100 170.707,257.900 171.484,259.000 172.201 C 261.433 173.787,264.303 174.800,266.364 174.800 C 268.288 174.800,271.110 175.776,272.231 176.829 C 272.701 177.271,273.786 177.740,274.643 177.872 C 276.418 178.146,278.400 179.047,278.400 179.579 C 278.400 179.777,279.075 180.156,279.900 180.423 C 283.074 181.450,288.002 184.031,288.636 184.999 C 288.997 185.550,289.530 186.000,289.821 186.000 C 290.556 186.000,294.000 191.238,294.000 192.357 C 294.000 192.861,294.720 194.299,295.600 195.554 C 296.480 196.808,297.200 197.965,297.200 198.125 C 297.200 198.285,298.276 199.447,299.591 200.708 L 301.983 203.000 302.342 206.255 C 302.539 208.044,302.981 210.024,303.322 210.655 C 304.622 213.050,304.800 214.619,304.800 223.683 C 304.800 233.120,304.482 235.810,303.167 237.516 C 302.752 238.053,302.344 239.540,302.179 241.116 C 301.860 244.167,301.070 245.903,298.957 248.200 C 298.148 249.080,297.258 250.340,296.979 251.000 C 296.700 251.660,295.916 252.900,295.236 253.755 C 294.556 254.610,294.000 255.475,294.000 255.677 C 294.000 255.879,292.875 257.202,291.500 258.618 C 289.209 260.975,287.660 262.819,285.574 265.669 C 285.143 266.256,283.938 267.061,282.896 267.457 C 281.853 267.853,280.730 268.478,280.400 268.846 C 280.070 269.214,278.927 269.835,277.861 270.227 C 276.794 270.618,275.836 271.161,275.732 271.433 C 275.515 271.999,274.031 272.629,272.000 273.018 C 271.230 273.166,270.240 273.611,269.800 274.007 C 268.791 274.917,266.645 275.453,262.725 275.776 C 260.453 275.963,259.146 276.312,257.725 277.111 L 255.800 278.193 239.400 278.333 C 229.681 278.415,222.837 278.629,222.600 278.856 C 222.344 279.102,222.128 290.152,222.000 309.611 L 221.800 339.982 220.691 341.091 L 219.582 342.200 204.291 342.200 C 187.434 342.200,187.202 342.167,186.495 339.651 C 185.947 337.700,186.138 178.739,186.690 177.500 C 187.355 176.008,189.455 174.804,191.400 174.799 C 193.403 174.795,195.571 174.217,198.400 172.935 C 199.610 172.387,201.140 171.694,201.800 171.394 C 205.226 169.840,248.467 169.092,255.000 170.474 M223.908 198.675 C 221.998 198.984,221.949 199.747,222.079 226.715 C 222.184 248.326,222.280 251.682,222.800 252.029 C 224.129 252.914,245.997 252.241,247.832 251.258 C 248.729 250.777,250.575 250.188,251.935 249.949 C 253.789 249.622,254.743 249.199,255.754 248.257 C 256.495 247.566,257.348 246.793,257.651 246.540 C 257.953 246.288,258.830 245.191,259.600 244.103 C 260.370 243.016,262.125 241.348,263.500 240.397 C 264.875 239.447,266.000 238.532,266.000 238.365 C 266.000 238.198,266.453 237.523,267.006 236.865 C 270.065 233.230,270.174 217.366,267.171 212.831 C 266.527 211.859,266.000 210.710,266.000 210.279 C 266.000 208.952,264.398 206.815,262.787 205.993 C 261.944 205.563,261.138 205.023,260.996 204.793 C 260.853 204.563,259.896 203.991,258.869 203.522 C 257.841 203.054,256.616 202.328,256.147 201.910 C 255.678 201.492,254.119 200.904,252.682 200.603 C 251.245 200.302,249.468 199.729,248.734 199.328 C 247.439 198.622,227.477 198.096,223.908 198.675 " stroke="none" fill="#353533" fill-rule="evenodd"></path><path id="path2" d="M218.740 53.742 C 217.937 53.994,216.947 54.481,216.540 54.825 C 216.133 55.169,215.329 55.742,214.753 56.100 C 210.639 58.652,210.788 67.269,215.065 74.092 C 215.579 74.913,216.000 75.765,216.000 75.986 C 216.000 76.207,216.554 77.444,217.230 78.735 C 217.907 80.026,218.564 81.873,218.692 82.841 C 218.886 84.323,220.780 88.782,222.496 91.800 C 222.746 92.240,223.407 93.410,223.964 94.400 C 224.521 95.390,225.586 96.810,226.330 97.555 C 227.074 98.300,228.210 100.010,228.855 101.355 C 229.499 102.700,230.725 104.970,231.578 106.400 C 234.049 110.539,236.649 116.029,237.168 118.200 C 237.431 119.300,237.883 120.650,238.172 121.200 C 239.574 123.868,240.775 125.940,241.740 127.356 C 242.323 128.212,242.800 129.157,242.800 129.456 C 242.800 129.756,243.655 130.617,244.700 131.369 C 246.778 132.865,247.999 134.602,248.001 136.062 C 248.002 136.578,248.375 137.610,248.829 138.355 C 249.283 139.100,250.017 140.630,250.459 141.755 C 250.901 142.880,251.502 144.070,251.794 144.400 C 252.659 145.378,255.804 151.654,256.404 153.600 C 256.709 154.590,257.164 155.760,257.416 156.200 C 257.668 156.640,258.118 157.787,258.417 158.750 C 259.191 161.241,260.788 162.694,263.107 163.016 C 267.754 163.661,275.801 165.831,278.222 167.092 C 279.114 167.556,281.001 168.146,282.415 168.403 C 285.440 168.951,289.675 171.465,290.384 173.133 C 291.321 175.336,294.888 178.321,297.945 179.459 C 298.965 179.839,300.309 180.566,300.931 181.075 C 301.553 181.584,302.219 182.000,302.411 182.000 C 302.604 182.000,303.293 182.765,303.943 183.700 C 304.593 184.635,305.461 185.760,305.873 186.200 C 307.502 187.940,308.515 189.750,309.078 191.924 C 309.402 193.176,310.165 195.190,310.774 196.400 C 314.081 202.977,314.390 203.894,315.153 209.400 C 315.366 210.940,315.855 213.350,316.240 214.756 C 316.918 217.240,316.914 217.431,316.092 221.556 C 315.626 223.890,315.130 226.790,314.990 228.000 C 314.685 230.619,314.031 233.097,313.355 234.200 C 310.902 238.198,310.662 241.827,312.471 247.571 C 313.158 249.753,315.426 252.587,317.159 253.429 C 318.031 253.853,319.063 254.740,319.453 255.400 C 319.842 256.060,320.506 256.960,320.930 257.400 C 321.353 257.840,322.042 258.958,322.461 259.883 C 322.880 260.809,323.392 261.672,323.599 261.800 C 323.806 261.928,324.340 263.257,324.786 264.754 C 325.232 266.251,326.138 268.222,326.798 269.134 C 327.459 270.047,328.000 270.950,328.000 271.142 C 328.000 271.334,328.417 271.920,328.926 272.445 C 329.436 272.970,330.095 274.030,330.390 274.800 C 330.686 275.570,331.327 276.650,331.816 277.200 C 332.304 277.750,333.198 278.997,333.802 279.972 C 334.406 280.946,335.522 282.415,336.282 283.236 C 337.041 284.057,338.031 285.420,338.482 286.264 C 338.932 287.109,339.423 287.890,339.572 288.000 C 339.722 288.110,341.084 290.090,342.600 292.400 C 344.116 294.710,345.481 296.690,345.634 296.800 C 345.787 296.910,346.180 297.900,346.506 299.000 C 347.238 301.467,349.169 304.788,351.238 307.138 C 352.097 308.114,352.800 309.052,352.800 309.222 C 352.800 309.392,353.655 310.059,354.700 310.704 C 357.182 312.236,359.346 314.497,360.813 317.089 C 364.653 323.877,376.416 322.862,378.405 315.571 C 380.358 308.408,377.594 294.162,373.356 289.552 C 372.183 288.276,371.138 286.820,371.035 286.316 C 370.172 282.131,369.845 280.895,369.414 280.200 C 369.141 279.760,368.629 278.258,368.276 276.862 C 367.923 275.466,367.279 273.722,366.844 272.986 C 366.410 272.249,365.744 270.511,365.365 269.123 C 364.985 267.735,364.545 266.420,364.385 266.200 C 364.226 265.980,363.699 264.090,363.213 262.001 C 362.727 259.912,361.907 257.302,361.391 256.201 C 360.875 255.100,360.325 253.660,360.169 253.000 C 360.013 252.340,359.486 250.990,358.997 250.000 C 358.508 249.010,357.810 246.850,357.446 245.200 C 356.876 242.619,356.535 241.942,355.006 240.351 C 354.019 239.325,352.854 237.545,352.387 236.351 C 351.924 235.168,351.184 233.581,350.742 232.824 C 350.298 232.064,349.694 229.822,349.392 227.814 C 349.092 225.815,348.388 223.194,347.827 221.990 C 347.267 220.785,346.806 219.364,346.804 218.832 C 346.802 218.299,346.234 216.702,345.543 215.283 C 342.021 208.053,344.531 201.658,352.491 197.583 C 358.379 194.569,359.189 194.338,360.810 195.205 C 362.374 196.043,363.044 190.340,361.587 188.585 C 361.203 188.122,361.255 187.410,361.836 185.169 C 362.708 181.806,362.262 180.409,360.181 179.983 C 355.097 178.944,352.667 177.213,351.779 174.000 C 350.632 169.854,348.800 171.692,348.800 176.988 C 348.800 179.681,348.634 179.941,346.000 181.367 C 345.230 181.783,343.013 183.176,341.074 184.462 C 336.146 187.729,332.990 187.602,332.022 184.096 C 331.514 182.257,331.363 182.413,335.826 180.197 C 340.246 178.004,342.857 175.814,344.148 173.219 C 344.949 171.609,345.233 171.377,346.623 171.200 C 347.790 171.051,348.229 170.795,348.336 170.200 C 348.415 169.760,348.795 169.040,349.180 168.600 C 349.566 168.160,349.999 167.468,350.142 167.062 C 350.286 166.656,350.763 166.230,351.202 166.115 C 351.641 166.001,352.000 165.763,352.000 165.587 C 352.000 165.411,353.426 164.545,355.170 163.663 C 356.913 162.782,358.670 161.732,359.074 161.330 C 359.478 160.929,360.289 160.224,360.876 159.764 C 362.048 158.848,362.817 157.638,364.947 153.366 C 365.724 151.807,366.648 150.292,367.000 150.000 C 367.352 149.708,367.990 148.700,368.419 147.759 C 368.847 146.818,369.378 145.937,369.599 145.801 C 370.748 145.090,370.018 142.521,368.335 141.354 C 365.396 139.316,352.668 140.187,346.915 142.819 C 345.989 143.243,344.369 143.782,343.315 144.017 C 342.262 144.252,340.968 144.726,340.441 145.070 C 339.914 145.414,337.805 145.930,335.756 146.216 C 333.050 146.594,331.670 146.997,330.715 147.688 C 329.992 148.211,328.356 148.978,327.079 149.392 C 325.803 149.806,324.654 150.313,324.527 150.519 C 324.217 151.020,318.901 153.426,317.350 153.767 C 316.159 154.029,313.600 152.018,313.600 150.820 C 313.600 150.360,316.912 148.369,319.200 147.454 C 320.190 147.057,321.450 146.481,322.000 146.173 C 327.199 143.261,329.598 142.321,330.778 142.732 C 332.048 143.175,332.853 142.693,331.815 142.112 C 330.392 141.316,330.043 135.616,331.192 131.936 L 331.983 129.400 331.116 128.742 C 330.640 128.379,329.406 127.971,328.375 127.834 C 326.577 127.596,326.397 127.447,323.964 124.183 C 322.357 122.027,321.228 120.857,320.881 120.990 C 320.581 121.106,320.105 121.200,319.825 121.200 C 319.488 121.200,319.231 122.105,319.066 123.871 C 318.786 126.874,318.666 127.004,315.600 127.627 C 314.390 127.873,312.124 128.688,310.563 129.437 C 309.003 130.187,307.515 130.800,307.256 130.800 C 306.996 130.800,306.083 131.243,305.225 131.784 C 301.083 134.399,297.625 133.348,293.800 128.311 C 293.237 127.570,290.556 124.445,289.167 122.911 C 288.525 122.202,288.000 121.465,288.000 121.273 C 288.000 121.081,287.621 120.581,287.157 120.162 C 286.693 119.743,285.885 118.555,285.361 117.522 C 284.787 116.391,283.732 115.179,282.705 114.471 C 280.767 113.138,278.446 110.724,274.988 106.446 C 270.691 101.132,270.083 100.253,269.615 98.692 C 268.997 96.629,266.609 94.053,264.410 93.077 C 261.486 91.780,257.178 86.762,254.942 82.052 C 252.928 77.807,249.618 74.692,244.800 72.507 C 243.091 71.732,240.000 69.078,240.000 68.385 C 240.000 68.207,239.573 67.553,239.052 66.931 C 238.530 66.309,237.976 65.214,237.820 64.498 C 236.283 57.455,225.779 51.533,218.740 53.742 " stroke="none" fill="#84b23f" fill-rule="evenodd"></path><path id="path3" d="M36.806 113.613 C 34.817 114.076,33.704 115.557,33.443 118.087 C 33.201 120.423,32.742 128.430,32.564 133.400 C 32.270 141.603,31.134 162.614,30.791 166.200 C 30.410 170.168,29.993 176.746,29.241 190.600 C 28.654 201.425,28.096 207.179,27.419 209.400 C 27.083 210.500,26.803 212.570,26.796 214.000 C 26.787 215.780,26.518 217.168,25.943 218.400 C 25.222 219.946,25.057 221.355,24.771 228.400 C 24.587 232.910,24.250 239.300,24.022 242.600 C 23.793 245.900,23.560 250.661,23.503 253.181 L 23.400 257.762 25.000 258.250 C 27.092 258.889,45.736 258.979,48.183 258.362 C 50.377 257.810,50.232 258.799,50.765 240.800 C 50.997 232.990,51.298 225.520,51.435 224.200 C 52.111 217.686,53.047 196.564,53.944 167.600 C 54.259 157.445,54.477 156.152,56.064 155.040 C 57.441 154.075,57.464 154.110,58.203 158.300 C 58.581 160.445,59.390 163.730,60.000 165.600 C 60.610 167.470,61.317 170.350,61.572 172.000 C 62.275 176.548,62.269 176.531,64.043 178.760 C 65.187 180.195,65.926 181.677,66.418 183.522 C 66.812 184.995,67.491 187.100,67.928 188.200 C 68.365 189.300,69.001 192.020,69.341 194.244 C 69.682 196.468,70.383 199.258,70.900 200.444 C 71.416 201.630,72.064 203.860,72.339 205.400 C 72.993 209.060,74.625 215.122,75.853 218.450 C 76.391 219.907,77.153 222.967,77.545 225.250 C 77.938 227.532,78.574 230.001,78.958 230.735 C 79.342 231.469,79.982 233.310,80.380 234.826 C 80.966 237.057,81.443 237.926,82.878 239.382 C 84.545 241.073,84.692 241.404,85.315 244.891 C 85.901 248.166,86.919 251.432,88.601 255.426 C 89.383 257.286,91.777 257.704,100.675 257.537 L 107.949 257.400 109.210 256.200 C 110.941 254.553,111.514 253.320,112.232 249.705 C 112.571 247.997,113.270 245.340,113.785 243.800 C 114.300 242.260,114.920 240.256,115.163 239.346 C 115.444 238.292,116.321 236.941,117.579 235.622 C 119.199 233.923,119.637 233.144,120.019 231.276 C 120.275 230.024,121.005 227.486,121.642 225.636 C 122.279 223.786,122.800 221.935,122.800 221.523 C 122.800 221.111,123.225 219.924,123.745 218.887 C 124.265 217.849,124.920 216.010,125.202 214.800 C 125.483 213.590,126.045 211.548,126.452 210.262 C 126.859 208.976,127.481 206.456,127.834 204.662 C 128.188 202.868,128.917 200.452,129.454 199.294 C 129.990 198.135,130.620 196.155,130.853 194.894 C 131.880 189.320,134.277 183.153,136.164 181.226 C 137.934 179.418,137.973 179.320,139.983 171.400 C 141.100 167.000,142.450 162.320,142.982 161.000 C 143.514 159.680,144.164 156.953,144.426 154.941 C 144.956 150.867,145.186 150.266,146.078 150.608 C 147.581 151.185,147.781 152.672,148.093 165.600 C 148.260 172.530,148.488 180.360,148.598 183.000 C 148.777 187.259,149.383 207.783,149.755 222.200 C 149.959 230.066,150.762 244.815,151.009 245.215 C 151.129 245.409,151.365 248.187,151.534 251.390 C 151.951 259.322,150.544 258.574,165.321 258.716 C 180.159 258.859,179.307 259.207,179.306 253.000 C 179.305 249.443,178.389 223.208,178.174 220.600 C 178.048 219.060,177.788 215.190,177.597 212.000 C 177.406 208.810,177.059 203.050,176.826 199.200 C 176.593 195.350,176.216 188.780,175.989 184.600 C 175.762 180.420,175.426 174.300,175.242 171.000 C 175.058 167.700,174.710 164.460,174.470 163.800 C 174.229 163.140,173.952 160.530,173.855 158.000 C 173.725 154.626,173.454 152.815,172.839 151.206 C 172.276 149.734,171.999 148.087,171.998 146.206 C 171.998 144.663,171.741 141.780,171.429 139.800 C 171.116 137.820,170.763 131.790,170.644 126.400 C 170.325 111.957,171.926 113.200,153.646 113.200 C 135.466 113.200,134.662 113.414,133.446 118.569 C 133.053 120.235,132.298 122.454,131.768 123.499 C 131.237 124.545,130.803 125.820,130.802 126.333 C 130.801 126.847,130.250 128.639,129.578 130.317 C 128.907 131.995,128.203 134.545,128.015 135.984 C 127.827 137.423,127.361 139.320,126.980 140.200 C 126.599 141.080,125.883 143.254,125.389 145.032 C 124.895 146.810,124.190 148.846,123.822 149.557 C 123.455 150.268,122.900 152.323,122.589 154.125 C 122.279 155.926,121.586 158.390,121.050 159.600 C 120.513 160.810,119.877 162.542,119.636 163.450 C 119.354 164.513,118.498 165.822,117.226 167.135 C 115.587 168.826,115.212 169.494,115.007 171.085 C 114.632 173.994,114.005 176.511,113.434 177.400 C 113.151 177.840,112.688 179.190,112.405 180.400 C 112.122 181.610,111.463 183.770,110.940 185.200 C 110.417 186.630,109.644 189.780,109.222 192.200 C 108.800 194.620,108.089 197.680,107.643 199.000 C 107.196 200.320,106.570 202.840,106.253 204.600 C 105.720 207.554,104.515 212.887,103.563 216.500 C 103.225 217.783,102.000 218.701,102.000 217.671 C 102.000 217.317,100.262 214.154,98.408 211.133 C 97.626 209.859,97.050 208.079,96.596 205.533 C 96.230 203.480,95.512 200.630,95.001 199.200 C 94.145 196.806,93.613 194.272,92.984 189.600 C 92.850 188.610,92.323 186.630,91.812 185.200 C 91.300 183.770,90.609 181.430,90.275 180.000 C 89.942 178.570,89.401 176.680,89.073 175.800 C 88.746 174.920,88.300 172.723,88.083 170.917 C 87.866 169.112,87.325 166.862,86.880 165.917 C 86.436 164.973,85.672 163.075,85.183 161.701 C 84.694 160.326,83.618 158.297,82.793 157.191 C 81.708 155.736,81.056 154.235,80.435 151.759 C 79.963 149.876,79.315 147.936,78.994 147.447 C 78.337 146.444,75.151 135.153,74.422 131.244 C 74.160 129.839,73.712 128.309,73.427 127.844 C 73.141 127.380,72.682 126.100,72.405 125.000 C 70.272 116.516,69.128 114.080,67.059 113.613 C 65.210 113.196,38.599 113.196,36.806 113.613 M68.373 116.375 C 68.550 116.719,68.824 117.717,68.983 118.593 C 69.141 119.469,69.621 120.909,70.049 121.793 C 70.477 122.677,71.098 124.567,71.429 125.994 C 71.761 127.421,72.400 129.211,72.849 129.973 C 73.360 130.839,73.790 132.562,73.999 134.578 C 74.417 138.618,74.719 139.891,75.617 141.400 C 76.009 142.060,76.525 143.664,76.764 144.964 C 77.002 146.264,77.567 147.956,78.019 148.723 C 78.472 149.490,79.196 151.838,79.629 153.941 C 80.403 157.701,80.783 158.439,83.053 160.591 C 83.522 161.036,84.175 162.480,84.502 163.800 C 84.830 165.120,85.475 166.870,85.937 167.690 C 86.438 168.581,86.947 170.562,87.203 172.620 C 87.614 175.933,88.522 179.348,89.222 180.215 C 89.407 180.444,89.745 181.794,89.974 183.215 C 90.483 186.373,91.026 188.309,91.597 188.996 C 91.834 189.282,92.282 191.683,92.592 194.332 C 92.947 197.357,93.461 199.778,93.974 200.841 C 94.424 201.772,95.101 204.604,95.480 207.134 C 95.990 210.548,96.417 212.105,97.135 213.168 C 101.215 219.206,102.257 220.430,103.061 220.121 C 103.850 219.819,104.798 217.865,104.809 216.520 C 104.814 215.904,105.190 214.590,105.646 213.600 C 106.102 212.610,106.821 209.460,107.245 206.600 C 107.686 203.620,108.377 200.632,108.863 199.600 C 109.363 198.537,109.864 196.325,110.086 194.200 C 110.292 192.220,110.785 189.880,111.182 189.000 C 111.926 187.348,112.575 184.947,113.007 182.250 C 113.143 181.397,113.706 180.018,114.257 179.185 C 114.879 178.246,115.416 176.632,115.671 174.935 C 116.194 171.460,116.910 169.793,118.424 168.518 C 119.683 167.459,120.800 165.281,120.800 163.886 C 120.800 163.437,121.266 162.275,121.835 161.303 C 122.489 160.189,123.077 158.263,123.429 156.088 C 123.736 154.191,124.357 151.852,124.810 150.890 C 125.262 149.928,125.801 148.252,126.007 147.166 C 126.213 146.079,126.838 144.226,127.395 143.046 C 127.987 141.797,128.579 139.548,128.817 137.653 C 129.041 135.866,129.561 133.818,129.973 133.102 C 130.385 132.386,131.018 130.465,131.380 128.834 C 131.743 127.203,132.399 125.363,132.839 124.745 C 133.279 124.128,133.908 122.331,134.237 120.752 C 135.485 114.764,134.701 115.029,151.638 114.869 C 169.280 114.702,169.555 114.798,168.924 120.918 C 168.779 122.316,168.923 123.656,169.353 124.923 C 169.837 126.347,170.004 128.414,170.017 133.114 C 170.027 136.571,170.213 142.370,170.432 146.000 C 170.651 149.630,170.971 155.120,171.144 158.200 C 171.383 162.452,171.638 164.137,172.206 165.200 C 172.796 166.304,172.986 167.698,173.106 171.800 C 173.220 175.689,173.439 177.403,173.977 178.600 C 174.582 179.948,174.773 182.279,175.188 193.400 C 175.459 200.660,175.841 209.390,176.037 212.800 C 176.233 216.210,176.546 221.700,176.734 225.000 C 176.921 228.300,177.278 231.720,177.528 232.600 C 178.090 234.587,178.162 256.324,177.609 257.200 C 176.982 258.191,154.716 258.086,153.716 257.087 C 153.080 256.451,152.955 254.925,152.555 242.836 C 152.309 235.390,151.948 229.050,151.754 228.749 C 151.115 227.759,150.093 197.786,149.683 168.043 C 149.343 143.356,149.068 140.930,147.029 144.624 C 146.793 145.051,146.039 146.210,145.354 147.200 C 144.136 148.961,143.609 150.969,142.982 156.254 C 142.847 157.384,142.302 159.170,141.769 160.222 C 141.236 161.274,140.799 162.600,140.798 163.168 C 140.795 164.680,140.009 167.300,139.330 168.064 C 138.812 168.648,138.514 170.047,137.737 175.546 C 137.615 176.405,136.925 177.561,135.826 178.746 C 133.948 180.770,132.800 182.733,132.800 183.921 C 132.800 184.339,132.380 185.473,131.867 186.440 C 130.778 188.493,130.553 189.302,130.013 193.110 C 129.793 194.663,129.261 196.533,128.831 197.267 C 128.402 198.000,127.757 199.860,127.398 201.400 C 127.039 202.940,126.598 204.480,126.418 204.822 C 126.106 205.415,125.379 208.454,124.419 213.182 C 124.176 214.381,123.744 215.641,123.459 215.982 C 122.911 216.637,122.185 218.924,121.824 221.134 C 121.705 221.867,121.268 222.947,120.854 223.534 C 120.440 224.120,119.777 226.130,119.381 228.000 C 118.603 231.672,118.015 232.877,116.285 234.348 C 115.121 235.338,114.000 237.553,114.000 238.862 C 114.000 239.283,113.580 240.476,113.068 241.513 C 112.555 242.551,111.818 245.261,111.431 247.537 C 110.990 250.125,110.403 252.165,109.863 252.987 C 109.388 253.709,108.801 254.638,108.557 255.050 C 108.153 255.734,107.436 255.812,100.357 255.933 C 89.552 256.118,89.342 256.035,88.419 251.205 C 88.146 249.778,87.675 248.131,87.372 247.545 C 87.069 246.959,86.611 245.157,86.355 243.540 C 85.898 240.655,85.183 238.993,83.716 237.400 C 82.480 236.057,81.371 233.901,80.847 231.823 C 80.574 230.735,79.997 229.070,79.565 228.123 C 79.134 227.176,78.528 224.736,78.220 222.701 C 77.912 220.665,77.211 218.010,76.663 216.800 C 76.115 215.590,75.385 212.925,75.042 210.878 C 74.698 208.831,74.139 206.571,73.800 205.857 C 73.461 205.142,73.013 203.506,72.803 202.221 C 72.594 200.935,71.980 199.037,71.439 198.002 C 70.698 196.585,70.357 195.062,70.059 191.846 C 69.785 188.886,69.422 187.165,68.879 186.245 C 68.448 185.514,67.772 183.545,67.377 181.869 C 66.809 179.459,66.301 178.386,64.944 176.731 C 63.125 174.514,63.079 174.381,62.392 169.400 C 62.150 167.640,61.511 165.278,60.972 164.152 C 60.300 162.748,59.752 160.376,59.229 156.603 C 58.566 151.822,58.312 150.887,57.287 149.451 C 56.638 148.543,55.986 147.411,55.838 146.936 C 55.690 146.461,55.334 145.877,55.047 145.639 C 53.518 144.370,53.213 148.290,52.401 179.600 C 51.979 195.860,51.567 203.906,50.802 210.800 C 50.546 213.110,50.207 222.920,50.049 232.600 C 49.846 245.071,49.622 250.455,49.281 251.074 C 49.016 251.554,48.800 252.688,48.800 253.594 C 48.800 256.591,47.999 257.494,45.057 257.809 C 41.689 258.169,25.760 257.894,25.333 257.468 C 24.275 256.413,25.026 234.590,26.197 232.351 C 26.712 231.367,26.978 229.573,27.176 225.745 C 27.385 221.726,27.616 220.235,28.159 219.406 C 29.006 218.114,29.361 214.111,30.215 196.200 C 30.854 182.784,31.305 176.497,32.003 171.224 C 32.249 169.367,32.591 161.340,32.763 153.387 C 32.935 145.433,33.238 138.672,33.438 138.363 C 33.783 137.827,34.032 134.669,34.703 122.341 C 35.131 114.475,33.430 115.232,50.958 115.105 C 65.381 115.000,67.756 115.173,68.373 116.375 M227.400 171.177 C 226.300 171.357,223.330 171.421,220.800 171.319 C 217.411 171.182,215.410 171.308,213.200 171.797 C 211.550 172.162,208.850 172.595,207.200 172.759 C 205.550 172.923,203.635 173.354,202.944 173.716 C 201.555 174.445,197.103 175.418,193.400 175.803 C 192.080 175.941,190.580 176.260,190.066 176.512 C 187.877 177.589,188.000 172.707,188.000 258.600 C 188.000 345.679,187.840 340.004,190.307 340.694 C 192.368 341.271,217.361 341.063,218.488 340.460 C 220.361 339.458,220.400 338.788,220.400 308.054 C 220.400 279.733,220.415 279.185,221.200 278.400 C 221.964 277.636,222.531 277.600,233.700 277.604 C 246.505 277.608,251.825 277.183,256.400 275.791 C 258.050 275.289,261.017 274.668,262.993 274.411 C 264.969 274.154,266.769 273.800,266.993 273.625 C 267.217 273.450,268.485 272.936,269.810 272.485 C 272.610 271.530,276.938 269.337,278.862 267.898 C 279.598 267.347,281.040 266.532,282.066 266.086 C 283.100 265.637,284.249 264.767,284.642 264.137 C 285.032 263.512,285.992 262.351,286.776 261.558 C 291.429 256.846,295.026 251.971,297.223 247.400 C 297.857 246.080,298.909 244.100,299.560 243.000 C 302.747 237.613,304.528 223.942,303.025 216.400 C 302.696 214.750,302.026 211.265,301.536 208.654 L 300.646 203.909 298.936 202.654 C 297.996 201.965,297.120 201.090,296.990 200.711 C 296.859 200.331,296.136 199.124,295.382 198.028 C 294.628 196.932,293.103 194.158,291.994 191.864 C 290.388 188.544,289.652 187.468,288.388 186.592 C 287.515 185.987,286.800 185.351,286.800 185.181 C 286.800 185.010,285.513 184.378,283.941 183.777 C 282.368 183.176,279.681 181.897,277.970 180.935 C 276.259 179.973,273.811 178.844,272.530 178.428 C 271.248 178.011,269.627 177.377,268.927 177.019 C 268.227 176.661,265.890 176.104,263.734 175.780 C 260.735 175.330,259.050 174.814,256.570 173.585 C 254.786 172.702,252.319 171.815,251.087 171.614 C 247.991 171.110,229.849 170.775,227.400 171.177 M240.800 172.651 C 241.790 173.003,244.597 173.433,247.038 173.607 C 250.498 173.854,251.908 174.138,253.438 174.898 C 255.219 175.782,258.085 176.343,264.103 176.983 C 265.150 177.094,266.436 177.467,266.962 177.812 C 267.488 178.157,269.242 178.809,270.859 179.262 C 272.477 179.715,274.070 180.306,274.400 180.576 C 275.074 181.126,277.752 182.400,278.235 182.400 C 278.407 182.400,278.958 182.784,279.458 183.254 C 279.958 183.724,281.255 184.339,282.339 184.620 C 284.399 185.155,284.935 185.502,288.022 188.308 C 289.402 189.563,290.038 190.519,290.418 191.908 C 290.703 192.949,291.355 194.309,291.868 194.931 C 292.381 195.553,292.800 196.293,292.800 196.576 C 292.800 196.859,293.316 197.739,293.946 198.532 C 294.577 199.326,295.323 200.530,295.604 201.210 C 295.885 201.889,296.957 203.318,297.985 204.385 L 299.855 206.324 300.537 211.462 C 300.912 214.288,301.427 217.722,301.682 219.094 C 302.032 220.980,302.032 222.489,301.682 225.294 C 301.428 227.332,301.111 230.440,300.978 232.200 C 300.607 237.101,300.143 238.616,298.200 241.287 C 297.214 242.641,296.288 244.390,296.141 245.174 C 295.764 247.192,294.865 249.207,293.754 250.527 C 293.229 251.151,292.800 251.856,292.800 252.094 C 292.800 252.771,289.610 256.824,287.611 258.687 C 286.615 259.614,285.260 260.885,284.600 261.511 C 282.587 263.421,279.312 266.000,278.900 266.000 C 278.687 266.000,277.844 266.630,277.027 267.400 C 276.211 268.170,275.257 268.800,274.907 268.800 C 274.556 268.800,273.444 269.320,272.435 269.955 C 271.426 270.590,269.610 271.332,268.400 271.605 C 267.190 271.878,265.030 272.458,263.600 272.895 C 262.170 273.332,259.920 273.841,258.600 274.027 C 252.597 274.872,250.677 275.240,249.868 275.703 C 249.240 276.062,245.052 276.255,234.741 276.400 C 221.439 276.587,220.426 276.651,219.641 277.362 C 218.801 278.123,218.800 278.158,218.800 307.202 C 218.800 337.003,218.733 338.380,217.244 339.176 C 216.256 339.705,192.840 339.800,191.549 339.280 C 189.533 338.469,189.600 341.231,189.600 258.348 C 189.600 170.574,189.353 177.413,192.536 177.046 C 195.821 176.667,203.861 175.864,207.000 175.602 C 208.760 175.454,211.370 174.937,212.800 174.451 C 215.038 173.691,216.180 173.576,221.000 173.625 C 225.755 173.674,226.902 173.562,228.600 172.882 C 231.232 171.829,238.119 171.699,240.800 172.651 M233.000 195.980 C 232.340 196.159,230.630 196.328,229.200 196.356 C 223.356 196.468,221.229 196.852,219.978 198.020 L 218.800 199.121 218.800 225.544 L 218.800 251.968 219.870 252.959 C 222.410 255.315,244.044 255.642,250.600 253.423 C 253.512 252.438,257.570 250.610,258.365 249.927 C 258.795 249.556,259.619 248.944,260.197 248.565 C 260.774 248.187,261.604 247.176,262.042 246.318 C 262.519 245.383,263.581 244.287,264.693 243.582 C 267.132 242.035,269.489 239.137,269.995 237.063 C 270.218 236.148,270.748 234.757,271.171 233.971 C 272.996 230.588,273.189 218.474,271.461 215.836 C 271.137 215.342,270.608 214.052,270.286 212.969 C 269.964 211.886,269.348 210.370,268.916 209.600 C 268.485 208.830,268.010 207.708,267.860 207.108 C 267.444 205.433,265.220 203.487,262.478 202.398 C 261.115 201.857,260.000 201.279,260.000 201.113 C 260.000 200.948,258.335 199.974,256.300 198.948 L 252.600 197.083 246.000 196.518 C 236.491 195.703,234.348 195.615,233.000 195.980 M245.166 197.611 C 249.015 197.905,251.049 198.252,252.366 198.841 C 253.374 199.292,255.010 199.938,256.000 200.278 C 256.990 200.617,257.890 201.027,258.000 201.189 C 258.210 201.500,262.592 204.176,264.567 205.200 C 265.224 205.541,265.960 206.405,266.272 207.200 C 266.573 207.970,267.342 209.680,267.980 211.000 C 271.552 218.385,272.134 224.591,270.005 232.600 C 268.806 237.111,268.502 237.850,267.331 239.096 C 267.073 239.371,266.526 240.022,266.116 240.544 C 265.706 241.065,264.747 241.807,263.985 242.193 C 262.535 242.929,260.839 244.675,260.814 245.459 C 260.806 245.711,260.196 246.431,259.457 247.059 C 256.199 249.828,256.595 249.602,251.200 251.762 C 246.431 253.672,224.481 254.395,221.937 252.727 C 220.413 251.728,220.400 251.495,220.402 225.450 C 220.404 201.019,220.527 198.803,221.908 198.155 C 223.562 197.378,237.757 197.046,245.166 197.611 " stroke="none" fill="#9a9a9c" fill-rule="evenodd"></path><path id="path4" d="M138.000 111.993 C 134.265 112.528,133.134 113.576,132.624 116.979 C 132.461 118.064,131.903 119.773,131.382 120.776 C 130.862 121.779,130.260 123.717,130.043 125.082 C 129.825 126.462,129.267 128.083,128.788 128.731 C 128.231 129.484,127.678 131.295,127.227 133.848 C 126.842 136.022,126.157 138.610,125.703 139.600 C 125.250 140.590,124.755 142.342,124.603 143.492 C 124.451 144.643,124.001 146.000,123.602 146.507 C 122.778 147.554,122.188 149.602,121.790 152.800 C 121.639 154.010,121.191 155.630,120.794 156.400 C 119.760 158.405,118.800 161.091,118.800 161.976 C 118.800 162.394,117.905 163.715,116.812 164.911 C 114.537 167.400,114.219 168.087,113.813 171.396 C 113.651 172.714,113.202 174.424,112.816 175.196 C 112.429 175.968,111.788 177.944,111.392 179.586 C 110.996 181.228,110.339 183.136,109.931 183.827 C 109.482 184.588,108.973 186.799,108.637 189.441 C 108.322 191.923,107.718 194.608,107.234 195.676 C 106.766 196.708,106.199 199.022,105.974 200.817 C 105.749 202.613,105.296 204.492,104.968 204.992 C 104.640 205.493,104.024 207.929,103.599 210.405 C 102.750 215.353,102.572 215.824,102.163 214.195 C 102.011 213.590,100.854 211.079,99.591 208.614 C 97.755 205.033,97.214 203.534,96.895 201.143 C 96.675 199.497,96.027 197.163,95.456 195.955 C 94.686 194.327,94.353 192.831,94.171 190.179 C 93.999 187.685,93.643 185.994,92.997 184.600 C 92.486 183.500,91.766 181.091,91.397 179.246 C 91.028 177.401,90.382 175.092,89.963 174.115 C 89.544 173.137,89.034 170.866,88.828 169.069 C 88.411 165.407,88.180 164.612,87.142 163.259 C 86.746 162.742,86.302 161.662,86.157 160.859 C 85.754 158.634,84.820 156.473,82.965 153.474 C 82.038 151.975,81.164 150.085,81.023 149.274 C 80.685 147.327,80.015 145.612,79.147 144.472 C 78.759 143.961,78.326 142.701,78.186 141.672 C 77.878 139.409,76.789 135.153,76.377 134.600 C 76.213 134.380,75.779 132.580,75.413 130.600 C 75.038 128.576,74.320 126.268,73.773 125.329 C 73.238 124.410,72.800 123.240,72.800 122.729 C 72.800 119.368,70.869 114.232,69.033 112.709 C 67.619 111.536,36.018 111.648,34.356 112.832 C 32.158 114.397,32.133 114.568,31.614 132.000 C 31.348 140.910,30.945 148.830,30.717 149.600 C 30.490 150.370,30.167 153.430,29.999 156.400 C 29.832 159.370,29.493 163.240,29.247 165.000 C 29.001 166.760,28.652 174.410,28.470 182.000 C 28.159 195.041,28.093 195.893,27.270 197.484 C 26.693 198.601,26.400 199.893,26.400 201.320 C 26.400 202.504,26.027 204.896,25.570 206.636 C 24.557 210.497,24.173 214.934,23.616 229.200 C 23.380 235.250,22.936 241.820,22.630 243.800 C 22.118 247.109,21.914 250.228,21.831 255.992 C 21.782 259.425,21.674 259.400,36.889 259.400 C 52.978 259.400,51.072 261.099,51.541 246.339 C 51.741 240.035,52.061 234.635,52.252 234.339 C 52.444 234.042,52.718 231.190,52.863 228.000 C 53.007 224.810,53.308 218.960,53.532 215.000 C 53.756 211.040,54.038 201.086,54.158 192.881 C 54.278 184.675,54.498 177.766,54.645 177.527 C 54.793 177.287,55.035 173.509,55.183 169.129 C 55.450 161.247,55.463 161.155,56.493 160.125 L 57.534 159.085 57.781 161.042 C 58.291 165.074,58.887 167.819,59.379 168.400 C 60.088 169.237,60.383 170.495,60.757 174.264 C 61.091 177.620,61.497 178.551,64.423 182.667 C 65.075 183.583,65.782 185.250,65.994 186.370 C 66.207 187.490,66.745 189.260,67.190 190.303 C 67.636 191.346,68.258 193.936,68.574 196.057 C 68.928 198.435,69.531 200.660,70.148 201.857 C 70.842 203.207,71.289 205.018,71.611 207.789 C 71.932 210.547,72.372 212.335,73.037 213.585 C 73.567 214.580,74.002 215.845,74.004 216.397 C 74.010 217.601,74.891 220.534,75.755 222.221 C 76.098 222.892,76.487 224.782,76.618 226.421 C 76.853 229.366,77.791 232.800,78.360 232.800 C 78.522 232.800,78.982 234.194,79.384 235.897 C 79.948 238.290,80.406 239.286,81.400 240.280 C 83.530 242.410,83.955 243.374,84.469 247.231 C 84.810 249.796,85.236 251.331,85.863 252.254 C 86.359 252.985,86.955 254.290,87.188 255.154 C 88.111 258.582,88.090 258.575,97.264 258.800 C 110.411 259.123,111.982 258.389,112.981 251.459 C 113.135 250.392,113.594 248.972,114.000 248.304 C 114.406 247.636,115.067 245.460,115.469 243.468 C 116.135 240.171,116.364 239.666,118.039 237.823 C 120.169 235.480,120.797 234.416,120.809 233.126 C 120.814 232.617,121.192 231.390,121.649 230.400 C 122.106 229.410,122.831 226.905,123.261 224.834 C 123.691 222.763,124.462 220.333,124.974 219.434 C 125.486 218.535,126.014 216.940,126.146 215.888 C 126.279 214.836,126.840 213.020,127.393 211.851 C 128.040 210.484,128.522 208.526,128.746 206.363 C 128.972 204.171,129.384 202.510,129.931 201.594 C 130.392 200.820,131.055 199.020,131.405 197.594 C 131.754 196.167,132.208 194.640,132.412 194.200 C 133.169 192.570,133.624 191.051,134.221 188.161 C 134.765 185.528,135.032 185.006,136.612 183.492 C 138.669 181.520,141.323 174.341,142.017 168.869 C 142.221 167.254,142.655 165.452,142.980 164.866 C 144.354 162.389,144.720 161.252,145.000 158.600 C 145.702 151.956,146.543 163.582,147.035 186.709 C 147.129 191.118,147.358 193.941,147.669 194.509 C 148.231 195.538,148.720 211.067,148.773 229.600 C 148.791 236.090,148.979 242.930,149.189 244.800 C 149.399 246.670,149.659 250.319,149.765 252.908 C 150.057 259.962,149.689 259.800,165.400 259.800 C 177.534 259.800,178.488 259.711,179.950 258.443 C 181.216 257.345,181.559 251.963,180.668 247.200 C 180.198 244.694,179.918 239.014,179.604 225.600 C 179.369 215.590,179.086 206.827,178.975 206.126 C 178.864 205.426,178.617 201.802,178.427 198.074 C 178.218 193.998,177.876 190.918,177.570 190.348 C 177.208 189.675,176.959 185.511,176.712 176.000 C 176.214 156.800,175.888 151.716,175.035 149.822 C 174.610 148.879,174.206 146.628,174.030 144.222 C 173.818 141.318,173.495 139.732,172.868 138.516 C 172.044 136.918,172.000 136.314,172.002 126.716 C 172.004 115.815,171.667 113.574,169.843 112.360 C 168.882 111.722,142.057 111.413,138.000 111.993 M67.059 113.613 C 69.128 114.080,70.272 116.516,72.405 125.000 C 72.682 126.100,73.141 127.380,73.427 127.844 C 73.712 128.309,74.160 129.839,74.422 131.244 C 75.151 135.153,78.337 146.444,78.994 147.447 C 79.315 147.936,79.963 149.876,80.435 151.759 C 81.056 154.235,81.708 155.736,82.793 157.191 C 83.618 158.297,84.694 160.326,85.183 161.701 C 85.672 163.075,86.436 164.973,86.880 165.917 C 87.325 166.862,87.866 169.112,88.083 170.917 C 88.300 172.723,88.746 174.920,89.073 175.800 C 89.401 176.680,89.942 178.570,90.275 180.000 C 90.609 181.430,91.300 183.770,91.812 185.200 C 92.323 186.630,92.850 188.610,92.984 189.600 C 93.613 194.272,94.145 196.806,95.001 199.200 C 95.512 200.630,96.230 203.480,96.596 205.533 C 97.050 208.079,97.626 209.859,98.408 211.133 C 100.262 214.154,102.000 217.317,102.000 217.671 C 102.000 218.701,103.225 217.783,103.563 216.500 C 104.515 212.887,105.720 207.554,106.253 204.600 C 106.570 202.840,107.196 200.320,107.643 199.000 C 108.089 197.680,108.800 194.620,109.222 192.200 C 109.644 189.780,110.417 186.630,110.940 185.200 C 111.463 183.770,112.122 181.610,112.405 180.400 C 112.688 179.190,113.151 177.840,113.434 177.400 C 114.005 176.511,114.632 173.994,115.007 171.085 C 115.212 169.494,115.587 168.826,117.226 167.135 C 118.498 165.822,119.354 164.513,119.636 163.450 C 119.877 162.542,120.513 160.810,121.050 159.600 C 121.586 158.390,122.279 155.926,122.589 154.125 C 122.900 152.323,123.455 150.268,123.822 149.557 C 124.190 148.846,124.895 146.810,125.389 145.032 C 125.883 143.254,126.599 141.080,126.980 140.200 C 127.361 139.320,127.827 137.423,128.015 135.984 C 128.203 134.545,128.907 131.995,129.578 130.317 C 130.250 128.639,130.801 126.847,130.802 126.333 C 130.803 125.820,131.237 124.545,131.768 123.499 C 132.298 122.454,133.053 120.235,133.446 118.569 C 134.662 113.414,135.466 113.200,153.646 113.200 C 171.926 113.200,170.325 111.957,170.644 126.400 C 170.763 131.790,171.116 137.820,171.429 139.800 C 171.741 141.780,171.998 144.663,171.998 146.206 C 171.999 148.087,172.276 149.734,172.839 151.206 C 173.454 152.815,173.725 154.626,173.855 158.000 C 173.952 160.530,174.229 163.140,174.470 163.800 C 174.710 164.460,175.058 167.700,175.242 171.000 C 175.426 174.300,175.762 180.420,175.989 184.600 C 176.216 188.780,176.593 195.350,176.826 199.200 C 177.059 203.050,177.406 208.810,177.597 212.000 C 177.788 215.190,178.048 219.060,178.174 220.600 C 178.389 223.208,179.305 249.443,179.306 253.000 C 179.307 259.207,180.159 258.859,165.321 258.716 C 150.544 258.574,151.951 259.322,151.534 251.390 C 151.365 248.187,151.129 245.409,151.009 245.215 C 150.762 244.815,149.959 230.066,149.755 222.200 C 149.383 207.783,148.777 187.259,148.598 183.000 C 148.488 180.360,148.260 172.530,148.093 165.600 C 147.781 152.672,147.581 151.185,146.078 150.608 C 145.186 150.266,144.956 150.867,144.426 154.941 C 144.164 156.953,143.514 159.680,142.982 161.000 C 142.450 162.320,141.100 167.000,139.983 171.400 C 137.973 179.320,137.934 179.418,136.164 181.226 C 134.277 183.153,131.880 189.320,130.853 194.894 C 130.620 196.155,129.990 198.135,129.454 199.294 C 128.917 200.452,128.188 202.868,127.834 204.662 C 127.481 206.456,126.859 208.976,126.452 210.262 C 126.045 211.548,125.483 213.590,125.202 214.800 C 124.920 216.010,124.265 217.849,123.745 218.887 C 123.225 219.924,122.800 221.111,122.800 221.523 C 122.800 221.935,122.279 223.786,121.642 225.636 C 121.005 227.486,120.275 230.024,120.019 231.276 C 119.637 233.144,119.199 233.923,117.579 235.622 C 116.321 236.941,115.444 238.292,115.163 239.346 C 114.920 240.256,114.300 242.260,113.785 243.800 C 113.270 245.340,112.571 247.997,112.232 249.705 C 111.514 253.320,110.941 254.553,109.210 256.200 L 107.949 257.400 100.675 257.537 C 91.777 257.704,89.383 257.286,88.601 255.426 C 86.919 251.432,85.901 248.166,85.315 244.891 C 84.692 241.404,84.545 241.073,82.878 239.382 C 81.443 237.926,80.966 237.057,80.380 234.826 C 79.982 233.310,79.342 231.469,78.958 230.735 C 78.574 230.001,77.938 227.532,77.545 225.250 C 77.153 222.967,76.391 219.907,75.853 218.450 C 74.625 215.122,72.993 209.060,72.339 205.400 C 72.064 203.860,71.416 201.630,70.900 200.444 C 70.383 199.258,69.682 196.468,69.341 194.244 C 69.001 192.020,68.365 189.300,67.928 188.200 C 67.491 187.100,66.812 184.995,66.418 183.522 C 65.926 181.677,65.187 180.195,64.043 178.760 C 62.269 176.531,62.275 176.548,61.572 172.000 C 61.317 170.350,60.610 167.470,60.000 165.600 C 59.390 163.730,58.581 160.445,58.203 158.300 C 57.464 154.110,57.441 154.075,56.064 155.040 C 54.477 156.152,54.259 157.445,53.944 167.600 C 53.047 196.564,52.111 217.686,51.435 224.200 C 51.298 225.520,50.997 232.990,50.765 240.800 C 50.232 258.799,50.377 257.810,48.183 258.362 C 45.736 258.979,27.092 258.889,25.000 258.250 L 23.400 257.762 23.503 253.181 C 23.560 250.661,23.793 245.900,24.022 242.600 C 24.250 239.300,24.587 232.910,24.771 228.400 C 25.057 221.355,25.222 219.946,25.943 218.400 C 26.518 217.168,26.787 215.780,26.796 214.000 C 26.803 212.570,27.083 210.500,27.419 209.400 C 28.096 207.179,28.654 201.425,29.241 190.600 C 29.993 176.746,30.410 170.168,30.791 166.200 C 31.134 162.614,32.270 141.603,32.564 133.400 C 32.742 128.430,33.201 120.423,33.443 118.087 C 33.704 115.557,34.817 114.076,36.806 113.613 C 38.599 113.196,65.210 113.196,67.059 113.613 M218.600 170.002 C 206.087 170.300,203.794 170.490,201.800 171.394 C 201.140 171.694,199.610 172.387,198.400 172.935 C 195.571 174.217,193.403 174.795,191.400 174.799 C 189.455 174.804,187.355 176.008,186.690 177.500 C 186.138 178.739,185.947 337.700,186.495 339.651 C 187.202 342.167,187.434 342.200,204.291 342.200 L 219.582 342.200 220.691 341.091 L 221.800 339.982 222.000 309.611 C 222.128 290.152,222.344 279.102,222.600 278.856 C 222.837 278.629,229.681 278.415,239.400 278.333 L 255.800 278.193 257.725 277.111 C 259.146 276.312,260.453 275.963,262.725 275.776 C 266.645 275.453,268.791 274.917,269.800 274.007 C 270.240 273.611,271.230 273.166,272.000 273.018 C 274.031 272.629,275.515 271.999,275.732 271.433 C 275.836 271.161,276.794 270.618,277.861 270.227 C 278.927 269.835,280.070 269.214,280.400 268.846 C 280.730 268.478,281.853 267.853,282.896 267.457 C 283.938 267.061,285.143 266.256,285.574 265.669 C 287.660 262.819,289.209 260.975,291.500 258.618 C 292.875 257.202,294.000 255.879,294.000 255.677 C 294.000 255.475,294.556 254.610,295.236 253.755 C 295.916 252.900,296.700 251.660,296.979 251.000 C 297.258 250.340,298.148 249.080,298.957 248.200 C 301.070 245.903,301.860 244.167,302.179 241.116 C 302.344 239.540,302.752 238.053,303.167 237.516 C 304.482 235.810,304.800 233.120,304.800 223.683 C 304.800 214.619,304.622 213.050,303.322 210.655 C 302.981 210.024,302.539 208.044,302.342 206.255 L 301.983 203.000 299.591 200.708 C 298.276 199.447,297.200 198.285,297.200 198.125 C 297.200 197.965,296.480 196.808,295.600 195.554 C 294.720 194.299,294.000 192.861,294.000 192.357 C 294.000 191.238,290.556 186.000,289.821 186.000 C 289.530 186.000,288.997 185.550,288.636 184.999 C 288.002 184.031,283.074 181.450,279.900 180.423 C 279.075 180.156,278.400 179.777,278.400 179.579 C 278.400 179.047,276.418 178.146,274.643 177.872 C 273.786 177.740,272.701 177.271,272.231 176.829 C 271.110 175.776,268.288 174.800,266.364 174.800 C 264.303 174.800,261.433 173.787,259.000 172.201 C 255.484 169.909,245.471 169.364,218.600 170.002 M251.087 171.614 C 252.319 171.815,254.786 172.702,256.570 173.585 C 259.050 174.814,260.735 175.330,263.734 175.780 C 265.890 176.104,268.227 176.661,268.927 177.019 C 269.627 177.377,271.248 178.011,272.530 178.428 C 273.811 178.844,276.259 179.973,277.970 180.935 C 279.681 181.897,282.368 183.176,283.941 183.777 C 285.513 184.378,286.800 185.010,286.800 185.181 C 286.800 185.351,287.515 185.987,288.388 186.592 C 289.652 187.468,290.388 188.544,291.994 191.864 C 293.103 194.158,294.628 196.932,295.382 198.028 C 296.136 199.124,296.859 200.331,296.990 200.711 C 297.120 201.090,297.996 201.965,298.936 202.654 L 300.646 203.909 301.536 208.654 C 302.026 211.265,302.696 214.750,303.025 216.400 C 304.528 223.942,302.747 237.613,299.560 243.000 C 298.909 244.100,297.857 246.080,297.223 247.400 C 295.026 251.971,291.429 256.846,286.776 261.558 C 285.992 262.351,285.032 263.512,284.642 264.137 C 284.249 264.767,283.100 265.637,282.066 266.086 C 281.040 266.532,279.598 267.347,278.862 267.898 C 276.938 269.337,272.610 271.530,269.810 272.485 C 268.485 272.936,267.217 273.450,266.993 273.625 C 266.769 273.800,264.969 274.154,262.993 274.411 C 261.017 274.668,258.050 275.289,256.400 275.791 C 251.825 277.183,246.505 277.608,233.700 277.604 C 222.531 277.600,221.964 277.636,221.200 278.400 C 220.415 279.185,220.400 279.733,220.400 308.054 C 220.400 338.788,220.361 339.458,218.488 340.460 C 217.361 341.063,192.368 341.271,190.307 340.694 C 187.840 340.004,188.000 345.679,188.000 258.600 C 188.000 172.707,187.877 177.589,190.066 176.512 C 190.580 176.260,192.080 175.941,193.400 175.803 C 197.103 175.418,201.555 174.445,202.944 173.716 C 203.635 173.354,205.550 172.923,207.200 172.759 C 208.850 172.595,211.550 172.162,213.200 171.797 C 215.410 171.308,217.411 171.182,220.800 171.319 C 223.330 171.421,226.300 171.357,227.400 171.177 C 229.849 170.775,247.991 171.110,251.087 171.614 M362.200 192.198 C 362.200 193.585,362.335 194.638,362.500 194.537 C 362.885 194.300,362.881 190.746,362.494 190.137 C 362.332 189.883,362.200 190.810,362.200 192.198 M227.000 197.589 C 219.797 197.983,220.405 195.414,220.402 225.450 C 220.399 256.588,219.258 253.330,230.242 253.537 C 244.538 253.808,253.001 252.359,257.230 248.920 C 259.863 246.777,260.801 245.871,260.814 245.459 C 260.839 244.675,262.535 242.929,263.985 242.193 C 264.747 241.807,265.706 241.065,266.116 240.544 C 266.526 240.022,267.073 239.371,267.331 239.096 C 268.502 237.850,268.806 237.111,270.005 232.600 C 272.134 224.591,271.552 218.385,267.980 211.000 C 267.342 209.680,266.573 207.970,266.272 207.200 C 265.960 206.405,265.224 205.541,264.567 205.200 C 262.592 204.176,258.210 201.500,258.000 201.189 C 257.890 201.027,256.990 200.617,256.000 200.278 C 255.010 199.938,253.374 199.292,252.366 198.841 C 249.238 197.442,238.959 196.935,227.000 197.589 M248.734 199.328 C 249.468 199.729,251.245 200.302,252.682 200.603 C 254.119 200.904,255.678 201.492,256.147 201.910 C 256.616 202.328,257.841 203.054,258.869 203.522 C 259.896 203.991,260.853 204.563,260.996 204.793 C 261.138 205.023,261.944 205.563,262.787 205.993 C 264.398 206.815,266.000 208.952,266.000 210.279 C 266.000 210.710,266.527 211.859,267.171 212.831 C 270.174 217.366,270.065 233.230,267.006 236.865 C 266.453 237.523,266.000 238.198,266.000 238.365 C 266.000 238.532,264.875 239.447,263.500 240.397 C 262.125 241.348,260.370 243.016,259.600 244.103 C 258.830 245.191,257.953 246.288,257.651 246.540 C 257.348 246.793,256.495 247.566,255.754 248.257 C 254.743 249.199,253.789 249.622,251.935 249.949 C 250.575 250.188,248.729 250.777,247.832 251.258 C 245.997 252.241,224.129 252.914,222.800 252.029 C 222.038 251.522,221.650 202.860,222.388 200.326 C 222.938 198.433,222.524 198.486,236.200 198.549 C 246.216 198.595,247.541 198.677,248.734 199.328 M354.000 239.325 C 354.000 239.394,354.585 239.979,355.300 240.625 L 356.600 241.800 355.425 240.500 C 354.330 239.288,354.000 239.016,354.000 239.325 " stroke="none" fill="#868d7a" fill-rule="evenodd"></path></g></svg>