<?xml version="1.0" encoding="UTF-8"?>
<svg xmlns="http://www.w3.org/2000/svg" xmlns:xlink="http://www.w3.org/1999/xlink" width="567pt" height="567pt" viewBox="0 0 567 567" version="1.1">
<g id="surface1">
<path style=" stroke:none;fill-rule:evenodd;fill:rgb(100%,100%,100%);fill-opacity:1;" d="M 0.0703125 566.910156 L 567 566.910156 L 567 -0.0195313 L 0.0703125 -0.0195313 Z M 0.0703125 566.910156 "/>
<path style=" stroke:none;fill-rule:evenodd;fill:rgb(89.0625%,0%,8.616638%);fill-opacity:1;" d="M 148.449219 388.457031 L 148.449219 393.050781 C 148.449219 396.769531 149.675781 400.054688 154.503906 400.054688 C 158.050781 400.054688 159.605469 396.855469 159.605469 393.5625 C 159.605469 388.121094 155.113281 386.050781 151.140625 383.621094 C 146.460938 380.945313 142.496094 378.4375 139.652344 375.160156 C 136.863281 371.855469 135.222656 367.886719 135.222656 362.175781 C 135.222656 349.996094 142.570313 343.765625 154.328125 343.765625 C 167.574219 343.765625 174.3125 352.582031 173.609375 364.765625 L 159.605469 364.765625 C 159.425781 360.972656 159.605469 355.78125 154.589844 355.4375 C 151.484375 355.179688 149.675781 356.917969 149.320313 359.753906 C 148.882813 363.648438 150.882813 365.640625 153.902344 367.710938 C 159.605469 371.351563 164.527344 373.597656 168.089844 376.871094 C 171.621094 380.171875 173.699219 384.488281 173.699219 392.355469 C 173.699219 404.800781 166.78125 411.714844 154.164063 411.714844 C 140.234375 411.714844 134.371094 403.941406 134.371094 395.382813 L 134.371094 388.457031 Z M 148.449219 388.457031 "/>
<path style=" stroke:none;fill-rule:evenodd;fill:rgb(89.0625%,0%,8.616638%);fill-opacity:1;" d="M 178.0625 376.972656 C 178.0625 364.511719 185.414063 360.367188 196.035156 360.367188 C 208.148438 360.367188 214.015625 366.0625 214.015625 376.972656 L 214.015625 396.671875 C 213.316406 407.652344 206.503906 411.714844 196.035156 411.714844 C 186.183594 411.714844 178.0625 407.742188 178.0625 396.671875 Z M 191.816406 397.542969 C 192.066406 400.3125 193.199219 401.777344 196.035156 401.777344 C 198.894531 401.777344 200.007813 400.3125 200.273438 397.542969 L 200.273438 375.917969 C 200.273438 372.824219 199.238281 370.304688 196.035156 370.304688 C 192.839844 370.304688 191.816406 372.824219 191.816406 375.917969 Z M 191.816406 397.542969 "/>
<path style=" stroke:none;fill-rule:evenodd;fill:rgb(89.0625%,0%,8.616638%);fill-opacity:1;" d="M 219.371094 410.140625 L 233.128906 410.140625 L 233.128906 345.335938 L 219.371094 345.335938 Z M 219.371094 410.140625 "/>
<path style=" stroke:none;fill-rule:evenodd;fill:rgb(89.0625%,0%,8.616638%);fill-opacity:1;" d="M 239.972656 361.746094 L 253.671875 361.746094 L 253.671875 410.140625 L 239.972656 410.140625 Z M 239.972656 333.636719 L 253.671875 333.636719 L 253.671875 345.308594 L 239.972656 345.308594 Z M 239.972656 333.636719 "/>
<path style=" stroke:none;fill-rule:evenodd;fill:rgb(89.0625%,0%,8.616638%);fill-opacity:1;" d="M 282.699219 410.140625 L 282.699219 404.539063 L 282.535156 404.539063 C 280.015625 409.21875 275.871094 411.714844 271.816406 411.714844 C 261.785156 411.367188 259.789063 401.949219 259.789063 393.730469 L 259.789063 376.972656 C 259.789063 369.359375 262.46875 360.367188 271.558594 360.367188 C 275.199219 360.367188 278.71875 361.921875 281.5625 366.160156 L 281.746094 366.160156 L 281.746094 345.335938 L 295.496094 345.335938 L 295.496094 410.140625 Z M 273.546875 392.695313 C 273.546875 395.554688 273.546875 400.472656 277.507813 400.472656 C 281.21875 400.472656 281.746094 396.769531 281.746094 392.085938 L 281.746094 380.675781 C 281.746094 376.527344 281.132813 371.515625 277.761719 371.617188 C 273.371094 371.617188 273.546875 377.0625 273.546875 380.171875 Z M 273.546875 392.695313 "/>
<path style=" stroke:none;fill-rule:evenodd;fill:rgb(89.0625%,0%,8.616638%);fill-opacity:1;" d="M 321.34375 410.140625 L 312.429688 410.140625 L 298.613281 345.335938 L 306.566406 345.335938 L 315.015625 390.023438 C 315.800781 394.421875 316.414063 398.921875 316.941406 404.96875 L 317.105469 404.96875 C 317.710938 399.964844 318.226563 395.210938 319.183594 390.539063 L 328.691406 345.335938 L 337.585938 345.335938 L 346.171875 390.023438 C 346.910156 394.34375 347.429688 398.660156 348.046875 404.96875 L 348.222656 404.96875 C 348.820313 399.964844 349.339844 395.210938 350.300781 390.539063 L 359.710938 345.335938 L 367.679688 345.335938 L 352.464844 410.140625 L 343.566406 410.140625 L 334.921875 366.160156 C 334.0625 361.921875 333.550781 357.605469 333.011719 350.515625 L 332.835938 350.515625 C 332.246094 356.746094 331.71875 361.476563 330.769531 366.160156 Z M 321.34375 410.140625 "/>
<path style=" stroke:none;fill-rule:evenodd;fill:rgb(89.0625%,0%,8.616638%);fill-opacity:1;" d="M 382.902344 411.453125 C 372.539063 411.453125 365.71875 405.230469 365.71875 384.488281 C 365.71875 369.953125 371.0625 360.792969 382.902344 360.792969 C 394.753906 360.792969 400.128906 369.953125 400.128906 384.488281 C 400.128906 405.304688 393.460938 411.453125 382.902344 411.453125 Z M 382.902344 366.59375 C 375.925781 366.59375 372.796875 372.109375 372.796875 386.652344 C 372.796875 397.972656 374.964844 405.671875 382.902344 405.671875 C 391.023438 405.671875 393.015625 397.972656 393.015625 386.652344 C 393.015625 372.109375 390.089844 366.59375 382.902344 366.59375 Z M 382.902344 366.59375 "/>
<path style=" stroke:none;fill-rule:evenodd;fill:rgb(89.0625%,0%,8.616638%);fill-opacity:1;" d="M 413.046875 369.953125 L 413.21875 369.953125 C 416.0625 363.648438 420.136719 360.972656 427.296875 361.59375 L 427.296875 368.324219 C 418.480469 366.765625 413.289063 372.292969 413.289063 381.019531 L 413.289063 410.140625 L 406.464844 410.140625 L 406.464844 362.101563 L 413.046875 362.101563 Z M 413.046875 369.953125 "/>
<path style=" stroke:none;fill-rule:evenodd;fill:rgb(89.0625%,0%,8.616638%);fill-opacity:1;" d="M 432.199219 410.140625 L 432.199219 345.335938 L 439.011719 345.335938 L 439.011719 384.488281 L 455.605469 362.101563 L 463.730469 362.101563 L 448.890625 380.773438 L 464.171875 410.140625 L 456.222656 410.140625 L 444.195313 386.214844 L 439.011719 393.050781 L 439.011719 410.140625 Z M 432.199219 410.140625 "/>
<path style=" stroke:none;fill-rule:evenodd;fill:rgb(89.0625%,0%,8.616638%);fill-opacity:1;" d="M 487.089844 374.980469 C 487.355469 369.269531 485.300781 366.59375 479.480469 366.59375 C 474.644531 366.59375 471.878906 368.851563 471.878906 373.859375 C 471.878906 380.066406 476.980469 380.859375 481.664063 382.835938 C 488.554688 385.96875 495.484375 387.683594 495.484375 396.671875 C 495.484375 405.839844 489.089844 411.550781 479.214844 411.453125 C 474.984375 411.550781 469.8125 410.078125 467.296875 406.445313 C 464.449219 402.644531 464.609375 399.441406 464.609375 396.15625 L 471.109375 396.15625 C 470.855469 402.035156 472.839844 405.671875 479.214844 405.671875 C 484.777344 405.671875 488.398438 403.417969 488.398438 397.542969 C 488.398438 390.714844 481.480469 390.105469 476.550781 388.023438 C 469.121094 385.269531 464.796875 382.757813 464.796875 374.386719 C 464.796875 366.0625 470.589844 360.792969 478.890625 360.792969 C 488.398438 360.792969 493.925781 365.136719 493.753906 374.980469 Z M 487.089844 374.980469 "/>
<path style=" stroke:none;fill-rule:evenodd;fill:rgb(6.272888%,16.479492%,51.367188%);fill-opacity:1;" d="M 163.0625 248.738281 C 137.339844 241.128906 109.300781 247.742188 105.023438 248.875 C 98.550781 250.589844 94.757813 252.320313 95.019531 254.351563 C 95.222656 255.847656 96.878906 256.882813 104.839844 256.6875 C 123.800781 256.226563 139.519531 256.867188 149.449219 259.648438 C 161.753906 263.082031 163.261719 269.414063 157.175781 281.863281 C 154.359375 287.617188 150.191406 293.5625 143.878906 299.878906 C 131.285156 312.511719 115.546875 320.742188 106.679688 325.230469 C 98.054688 329.605469 94.90625 327.28125 95.863281 322.964844 C 97.039063 317.675781 121.503906 275.347656 121.503906 275.347656 C 123.339844 272.136719 123.664063 269.113281 121.503906 268.210938 C 119.648438 267.425781 116.285156 270.03125 112.796875 274.070313 C 98.515625 290.648438 72.183594 341.097656 71.703125 342.757813 C 71.214844 344.34375 72.457031 344.539063 72.925781 344.550781 C 84.078125 344.46875 152.515625 324.222656 174.597656 282.851563 C 186.226563 261.066406 180.34375 253.855469 163.0625 248.738281 Z M 163.0625 248.738281 "/>
<path style=" stroke:none;fill-rule:evenodd;fill:rgb(94.921875%,52.929688%,0%);fill-opacity:1;" d="M 197.152344 228.839844 C 183.335938 240.789063 203.835938 260.476563 213.46875 271.765625 C 222.847656 282.738281 234.199219 296.664063 234.734375 301.445313 C 234.972656 303.640625 234.535156 306.132813 231.910156 307.757813 C 227.617188 310.441406 209.894531 313.03125 173.234375 312.996094 C 165.28125 312.988281 163.65625 313.769531 163.453125 315.195313 C 163.339844 315.941406 163.09375 317.667969 173.214844 320.210938 C 173.488281 320.289063 215.230469 327.960938 237.492188 320.210938 C 260.234375 312.453125 254.511719 299.351563 250.429688 291.785156 C 244.148438 280.132813 215.171875 246.242188 212.777344 241.636719 C 210.539063 237.320313 213.796875 235.433594 213.796875 235.433594 C 213.796875 235.433594 218.644531 229.601563 257.289063 229.9375 C 265.253906 230 266.90625 229.167969 267.09375 227.734375 C 267.253906 226.546875 264.976563 223.96875 257.402344 222.347656 C 250.261719 220.8125 213.734375 214.507813 197.152344 228.839844 Z M 197.152344 228.839844 "/>
<path style=" stroke:none;fill-rule:evenodd;fill:rgb(89.0625%,0%,8.616638%);fill-opacity:1;" d="M 147.304688 158.460938 C 144.226563 159.363281 138.011719 161.070313 138.539063 163.335938 C 138.871094 164.792969 140.109375 165.484375 147.320313 165.476563 C 163.460938 165.457031 176.003906 166.503906 184.59375 168.042969 C 202.066406 171.199219 197.953125 180.015625 192.988281 188.457031 C 180.9375 209 148.390625 232.117188 146.503906 233.417969 C 144.023438 235.132813 145.378906 236.128906 147.550781 235.320313 C 173.9375 225.503906 200.527344 208.582031 211.265625 188.019531 C 220.378906 170.578125 213.847656 162.304688 199.964844 158.40625 C 175.171875 151.433594 149.46875 157.820313 147.304688 158.460938 Z M 147.304688 158.460938 "/>
</g>
</svg>
